<svg xmlns="http://www.w3.org/2000/svg" 
    xmlns:xlink="http://www.w3.org/1999/xlink" version="1.1" x="0px" y="0px" viewBox="0 0 100 100" style="enable-background:new 0 0 100 100;" xml:space="preserve">
    <path fill="#f05033" d="M68,33H32c-0.552,0-1,0.448-1,1v42c0,0.552,0.448,1,1,1h36c0.552,0,1-0.448,1-1V34C69,33.448,68.552,33,68,33z M67,75H33V35  h34V75z M36.293,40.707c-0.391-0.391-0.391-1.023,0-1.414s1.023-0.391,1.414,0L39,40.586l3.293-3.293  c0.391-0.391,1.023-0.391,1.414,0s0.391,1.023,0,1.414l-4,4C39.512,42.902,39.256,43,39,43s-0.512-0.098-0.707-0.293L36.293,40.707z   M46,41c0-0.552,0.448-1,1-1h16c0.552,0,1,0.448,1,1s-0.448,1-1,1H47C46.448,42,46,41.552,46,41z M36.293,50.707  c-0.391-0.391-0.391-1.023,0-1.414s1.023-0.391,1.414,0L39,50.586l3.293-3.293c0.391-0.391,1.023-0.391,1.414,0s0.391,1.023,0,1.414  l-4,4C39.512,52.902,39.256,53,39,53s-0.512-0.098-0.707-0.293L36.293,50.707z M46,51c0-0.552,0.448-1,1-1h16c0.552,0,1,0.448,1,1  s-0.448,1-1,1H47C46.448,52,46,51.552,46,51z M36.293,60.707c-0.391-0.391-0.391-1.023,0-1.414s1.023-0.391,1.414,0L39,60.586  l3.293-3.293c0.391-0.391,1.023-0.391,1.414,0s0.391,1.023,0,1.414l-4,4C39.512,62.902,39.256,63,39,63s-0.512-0.098-0.707-0.293  L36.293,60.707z M46,61c0-0.552,0.448-1,1-1h16c0.552,0,1,0.448,1,1s-0.448,1-1,1H47C46.448,62,46,61.552,46,61z M36.293,70.707  c-0.391-0.391-0.391-1.023,0-1.414s1.023-0.391,1.414,0L39,70.586l3.293-3.293c0.391-0.391,1.023-0.391,1.414,0s0.391,1.023,0,1.414  l-4,4C39.512,72.902,39.256,73,39,73s-0.512-0.098-0.707-0.293L36.293,70.707z M46,71c0-0.552,0.448-1,1-1h16c0.552,0,1,0.448,1,1  s-0.448,1-1,1H47C46.448,72,46,71.552,46,71z M70,23H55.658c-0.835-2.36-3.097-4-5.658-4s-4.822,1.64-5.658,4H30  c-1.654,0-3,1.346-3,3v52c0,1.654,1.346,3,3,3h40c1.654,0,3-1.346,3-3V26C73,24.346,71.654,23,70,23z M45.101,25  c0.476,0,0.885-0.335,0.98-0.801C46.457,22.345,48.105,21,50,21s3.543,1.345,3.919,3.199C54.014,24.665,54.424,25,54.899,25H57v4H43  v-4H45.101z M71,78c0,0.551-0.449,1-1,1H30c-0.551,0-1-0.449-1-1V26c0-0.551,0.449-1,1-1h11v5c0,0.552,0.448,1,1,1h16  c0.552,0,1-0.448,1-1v-5h11c0.551,0,1,0.449,1,1V78z M48,25c0-1.105,0.895-2,2-2s2,0.895,2,2c0,1.105-0.895,2-2,2S48,26.105,48,25z"/>
</svg>