<svg xmlns="http://www.w3.org/2000/svg" 
    xmlns:xlink="http://www.w3.org/1999/xlink" version="1.1" x="0px" y="0px" viewBox="0 0 100 100" enable-background="new 0 0 100 100" xml:space="preserve">
    <g>
        <path fill="#f05033" d="M31.6,7.9h-19c-1.2,0-2.2,1-2.2,2.2v18.5c0,1.2,1,2.2,2.2,2.2h19c1.2,0,2.2-1,2.2-2.2V10.1   C33.8,8.9,32.8,7.9,31.6,7.9z"/>
        <path fill="#f05033" d="M31.6,37.3h-19c-1.2,0-2.2,1-2.2,2.2v18.5c0,1.2,1,2.2,2.2,2.2h19c1.2,0,2.2-1,2.2-2.2V39.4   C33.8,38.2,32.8,37.3,31.6,37.3z M27.2,53.6H16.9v-9.8h10.3V53.6z"/>
        <path fill="#f05033" d="M31.6,67.7h-19c-1.2,0-2.2,1-2.2,2.2v18.5c0,1.2,1,2.2,2.2,2.2h19c1.2,0,2.2-1,2.2-2.2V69.8   C33.8,68.7,32.8,67.7,31.6,67.7z M27.2,84H16.9v-9.8h10.3V84z"/>
        <path fill="#f05033" d="M75.5,19.5l1.9-4c1.3-2.8-0.8-6-3.9-5.7l-26.8,2.1c-2.9,0.2-4.5,3.5-2.9,6l14.6,21.3c2,2.9,6.4,2.6,7.9-0.6   l1.9-3.9c0.5-1,1.8-1.3,2.6-0.6c6.2,5.2,10.1,12.9,10.1,21.6c0,11.8-7.3,21.9-17.5,26.1c-2.1,0.9-3.6,2.8-3.7,5   c-0.2,4.1,3.9,7.1,7.7,5.5c14.5-5.8,24.8-20.1,24.8-36.7c0-12.8-6.1-24.1-15.5-31.4C75.2,23.1,74.7,21.2,75.5,19.5z"/>
    </g>
</svg>