<svg xmlns="http://www.w3.org/2000/svg" viewBox="0 0 96 96" x="0px" y="0px">
    <g fill="#f05033" data-name="Layer 2">
        <g>
            <path d="M94.5,0H1.5A1.5,1.5,0,0,0,0,1.5V19.26a1.5,1.5,0,0,0,1.5,1.5H5.22V83a1.5,1.5,0,0,0,1.5,1.5H89.28a1.5,1.5,0,0,0,1.5-1.5V20.76H94.5a1.5,1.5,0,0,0,1.5-1.5V1.5A1.5,1.5,0,0,0,94.5,0ZM87.78,81.51H8.22V20.76H87.78ZM93,17.76H3V3H93Z"/>
            <path d="M27.85,45.84H68.15a8,8,0,0,0,8-8v-.58a8,8,0,0,0-8-8H27.85a8,8,0,0,0-8,8v.58A8,8,0,0,0,27.85,45.84Zm-5-8.58a5,5,0,0,1,5-5H68.15a5,5,0,0,1,5,5v.58a5,5,0,0,1-5,5H27.85a5,5,0,0,1-5-5Z"/>
        </g>
    </g>
</svg>