<svg xmlns="http://www.w3.org/2000/svg" 
	xmlns:xlink="http://www.w3.org/1999/xlink" version="1.1" x="0px" y="0px" viewBox="0 0 150 150" style="enable-background:new 0 0 150 150;" xml:space="preserve">
	<style type="text/css">
	.st0{fill:none;}
	.st1{fill:none;stroke:#000000;stroke-width:2;stroke-linecap:round;stroke-linejoin:round;stroke-miterlimit:10;}
	</style>
	<g>
		<g>
			<path fill="#f05033" d="M79.0525436,64.7187805c-3.5557938-3.4453278-7.6418304-2.6204872-8.4544678-2.7397423    c0.2780151-1.3276367,0.4825439-2.7097778,0.612793-4.1381836c1.1617355-0.1676941,5.0170746,0.8143272,7.8319092-2.5634766    l3.1171875-3.7412109c0.3535156-0.4243164,0.2963867-1.0546875-0.1279297-1.4082031    c-0.4248047-0.3535156-1.0546875-0.2958984-1.4082031,0.1279297l-3.1171875,3.7412109    c-2.095665,2.514801-4.971756,1.6883049-6.1743164,1.84375c-0.0166626-1.7609253-0.3751831-3.47229-1.0229492-5.0568848    c0.6664352-0.4031639,7.8262405-1.5952606,9.6674805-9.2067871c0.1293945-0.5366211-0.2001953-1.0771484-0.7373047-1.2070313    c-0.53125-0.1293945-1.0766602,0.2001953-1.2070313,0.7373047c-1.5847168,6.5536995-7.7723618,7.3753967-8.619873,7.8729858    c-1.3422852-2.2729492-3.3306885-4.1583862-5.7829552-5.3666992c-0.0070801-1.4740601-0.3779907-2.8518677-1.0116577-4.0404053    c5.64291-2.2971077,5.9981117-6.9915237,4.1615562-7.0532837c-0.5307617-0.0170898-1.0141602,0.4145508-1.0327148,0.9663086    c-0.0862427,2.6029663-3.0440025,3.9419556-4.3187218,4.3997803c-2.8570251-3.0907631-7.394474-3.0896225-10.2512817-0.0067749    c-1.267395-0.4466553-4.2387695-1.7695923-4.3259888-4.3930054c-0.0431519-1.3178139-2.0424232-1.2589645-1.9990234,0.0664063    c0.116333,3.4880371,3.2982788,5.2700806,5.1329956,6.012146c-0.6364746,1.1905518-1.0092163,2.5714111-1.0162964,4.0490112    c-2.4523315,1.2085571-4.4406128,3.0938721-5.7828369,5.3665161c-0.8493462-0.4986115-7.0338097-1.312252-8.6199951-7.8729858    c-0.310154-1.2837448-2.2549248-0.818325-1.9443359,0.4697266c1.8403091,7.6086388,9.004303,8.8056297,9.6674805,9.2067871    c-0.6477661,1.5846558-1.0062866,3.2959595-1.0229492,5.0568848c-1.2114563-0.1565971-4.0769119,0.6731377-6.1743164-1.84375    c-2.2956543-2.3637123-3.2180157-4.9575233-4.5258808-3.8691406c-1.3033562,1.0858803,1.0784111,2.4644699,2.989748,5.1494141    c2.8168564,3.3802299,6.6184692,2.3887863,7.8279419,2.5634766c0.1290283,1.4276733,0.3331299,2.8099365,0.6112671,4.1381836    c-0.8072815,0.1185493-4.8977165-0.7030334-8.4489746,2.7397423l-3.0356464,2.9418945    c-0.3969727,0.3842773-0.4067383,1.0175781-0.0224609,1.4140625c0.1962891,0.2026367,0.4570313,0.3041992,0.7182617,0.3041992    c0.2509766,0,0.5019531-0.09375,0.6958008-0.2817383l3.0356464-2.9418945    c2.9829597-2.891407,6.3731613-2.0282745,7.5394897-2.1762657c0.4839478,1.7599449,1.0888672,3.4103355,1.8117065,4.9110069    c-2.286377,0.838501-6.6485596,3.3739624-6.6500244,10.5367432c0,0.5522461,0.4472656,1,1,1c0.5522461,0,1-0.4477539,1-1    c0.0015869-6.3602905,3.9321899-8.2503662,5.5880127-8.7650146c5.9549561,10.1429825,16.1975822,10.149826,22.1476402-0.0061646    c1.6538696,0.5005493,5.5840454,2.362793,5.5856323,8.7711792c0,0.5527344,0.4477539,1,1,1c0.5527344,0,1-0.4477539,1-1    c-0.0014648-7.1653442-4.3668213-9.7001343-6.6525879-10.5377197c0.7211914-1.4996948,1.3253784-3.1495361,1.809021-4.9100304    c1.1676178,0.148037,4.5839233-0.6927109,7.5447388,2.1762657l3.0351563,2.9418945    c0.1938477,0.1879883,0.4448242,0.2817383,0.6958008,0.2817383c0.2612305,0,0.5219727-0.1015625,0.7182617-0.3041992    c0.3842773-0.3964844,0.3745117-1.0292969-0.0224609-1.4140625L79.0525436,64.7187805z M61.5774422,42.7866554    c-2.3419647-0.7215958-7.3772469-0.9794159-10.556633,0C51.8926086,35.8638763,60.7055244,35.8628807,61.5774422,42.7866554z     M44.289547,63.0119362c0.0058517-0.1588287-0.0109444-0.295681-0.1342163-0.5144043    c-0.4209595-1.7276611-0.7097168-3.5610352-0.8450928-5.4675903c0.020504-0.1033249,0.0920219-0.2125816-0.032959-0.5415039    c-0.2893181-6.4953461,4.9039841-12.3082275,11.7943115-12.3082275c0.6296387,0.1391716,8.8861046-1.2569466,12.8884239,6.2873535    c0.0818634,0.3216858,1.5152206,2.5171967,1.3615112,6.0159302c-0.150032,0.3890152,0.0462189,2.2065506-0.8833618,6.0209961    c-0.1642609,0.2973518-0.1166382,0.3976517-0.1314087,0.4977417    C63.7038994,80.6007462,48.9247017,80.6930237,44.289547,63.0119362z"/>
		</g>
		<g>
			<path fill="#f05033" d="M83.652153,28.8183937c-15.1845932-15.1369953-39.7449493-15.1289606-54.9033203,0.1987305    C13.6692448,44.2661476,13.758112,68.9897766,28.9461002,84.1299133    C41.4260788,96.5682755,56.1758652,95.4221725,56.291317,95.445343    C90.4551392,95.445343,108.4808578,53.5673866,83.652153,28.8183937z M56.2898521,93.445343    c-9.7797852-0.0009766-18.9892578-3.8125-25.9316425-10.7319336c-14.4101563-14.3647461-14.4941406-37.8217735-0.1875-52.2900352    c14.3579922-14.5180302,37.6460724-14.5655775,52.0693359-0.1889648    C105.8128281,53.7325706,88.6793594,93.445343,56.2898521,93.445343z"/>
		</g>
		<g>
			<path fill="#f05033" d="M136.2000122,117.8462219c-26.5776978-26.4909973-25.4295654-25.9088669-26.4160233-24.9121094l-4.3321533,4.3786011    L92.9409103,84.8415222c23.6234665-30.6568489,1.3989334-75.0148697-36.8068199-74.8331909    C15.161582,10.1555786-5.5451498,60.3070602,23.6877995,89.4477844    c16.6391544,16.5850601,42.7430878,18.1045074,61.1298828,3.6092529l12.5087891,12.4682617l-4.3398438,4.3863525    c-0.387207,0.3916016-0.3852539,1.0224609,0.0048828,1.4116211l8.9291992,8.8970337    c0.0004272,0.0004272,0.0005493,0.0009766,0.0009766,0.0014038l16.0737305,16.0229492    c2.5073242,2.4985352,5.8017578,3.7475586,9.0981445,3.7475586c3.2849197,0,6.5713577-1.2427979,9.0763626-3.7259521    c0.0007935-0.0007324,0.0019531-0.0008545,0.0027466-0.0015869c0.0185547-0.0161133,0.0761719-0.0688477,0.0932617-0.0864258    C141.2815552,131.1054993,141.2522583,122.8818665,136.2000122,117.8462219z M135.4529419,134.1059875l-22.9727249-23.0640259    l7.005127-7.032959l15.3025589,15.2537231C138.8518677,123.3130188,139.0745239,129.8013,135.4529419,134.1059875z     M25.0999088,88.0312805c-27.9855633-27.8964653-8.1516933-75.8821869,31.0410175-76.0229492    c0.0551758-0.0004883,0.1083984-0.0004883,0.1635742-0.0004883c41.4305153,0,60.2384605,52.8762398,27.9589806,78.9428711    C66.671196,105.370636,41.2366295,104.1152649,25.0999088,88.0312805z M86.3806686,91.7910461    c1.6772842-1.4337463,3.6653442-3.4021301,5.3115234-5.3701172l12.3532715,12.3132324l-5.3120728,5.3690796L86.3806686,91.7910461    z M110.4998093,95.0542297l7.5678101,7.5409546c-5.4634399,5.4852982-10.0808792,10.1212082-15.4417725,15.50354    l-7.5166626-7.4888306C97.1656418,108.531395,109.6421127,95.9211273,110.4998093,95.0542297z M119.4075241,134.8281555    l-15.3644409-15.3156128l7.0256348-7.0534668l22.9603958,23.0516968    C129.7615356,139.0361633,123.3997116,138.8066711,119.4075241,134.8281555z"/>
		</g>
	</g>
</svg>