<svg xmlns="http://www.w3.org/2000/svg" 
    xmlns:xlink="http://www.w3.org/1999/xlink" version="1.1" x="0px" y="0px" viewBox="0 0 100 75.445" enable-background="new 0 0 100 75.445" xml:space="preserve">
    <path fill="#f05033" d="M4.537,29.951l13.678-7.944L48.15,39.284L34.471,47.23L4.537,29.951z M49.18,75.445L19.249,58.167V40.831l14.706,8.488  c0.162,0.093,0.339,0.141,0.517,0.141c0.181,0,0.357-0.048,0.521-0.143l14.194-8.245L49.18,75.445z M81.175,58.167L51.246,75.445  l0.012-34.366l14.187,8.237c0.318,0.188,0.715,0.188,1.034,0.002l14.696-8.481V58.167z M95.894,29.949L65.967,47.23l-13.683-7.947  l29.929-17.281"/>
    <g>
        <path fill="#f05033" d="M68.425,14.722c0.867-2.147,1.274-2.987,2.177-4.412C75.7,2.249,87.801,1.554,87.801,1.554   C72.833-3.975,60.1,10.71,60.1,10.71l-6.698-3.218l3.183,21.895l19.08-11.185L68.425,14.722z"/>
    </g>
    <g>
        <path fill="#f05033" d="M33.305,14.722c-0.867-2.147-1.275-2.987-2.176-4.412c-5.098-8.061-17.2-8.755-17.2-8.755   c14.968-5.53,27.702,9.156,27.702,9.156l6.697-3.218l-3.181,21.895L26.066,18.201L33.305,14.722z"/>
    </g>
</svg>