<svg xmlns="http://www.w3.org/2000/svg" data-name="Layer 1" viewBox="0 0 83.2 95" x="0px" y="0px">
    <path fill="#f05033" d="M90.65,64.54C89,57.22,81.22,49.36,72.48,49.36h-.35a29,29,0,0,0-4,.33,49.53,49.53,0,0,1,1.56,5.55,15.69,15.69,0,0,0,3.12-1.11S69.9,57,66.9,57.27c-.26-1.33-5.29-25.48-26.54-42.08-1-.82-1.94-1.53-2.85-2.17a12.79,12.79,0,0,1,6.66-.14c1.7,4.33,5.71,6.33,10.64,7.63,5.77,1.52,25.64-4.39,25.64-4.39C79.23,14.11,68.63.41,53.87,3.43c-9.38,1.92-10.37,7-10.37,7a29.62,29.62,0,0,0-8.74.76L32.68,10c-2-1.25-2.89-.18-3.94,1.25-.91,1.23,1.38,3.39,4.44,4.76,3.27,7.54,9.65,25.67,2.2,39.1a3.92,3.92,0,0,0,3.35,2.31A4.23,4.23,0,0,0,40,57.19s6.86-13.85-2.92-39.37a7.4,7.4,0,0,0,1.49-.76c7.54,6.56,20.09,20,24,39.12a20,20,0,0,0-7.28-1.77,11.23,11.23,0,0,0-3.6.59C46,56.89,39.75,66.27,43.22,78.41,46,88,56.54,97,67.91,97a20.92,20.92,0,0,0,9.2-2.12C91.41,87.94,93.14,75.44,90.65,64.54Z" transform="translate(-8.4 -3)"/>
    <path fill="#f05033" d="M47.29,54.11a20.44,20.44,0,0,0-3-1.17,31.59,31.59,0,0,1-1,3.75,7.43,7.43,0,0,1,.57.84A17.33,17.33,0,0,1,47.29,54.11Z" transform="translate(-8.4 -3)"/>
    <path fill="#f05033" d="M41.4,61.68l.15-.32a18.17,18.17,0,0,1-4.33-.89c-10.53-3.24-9.17-7.93-6.9-8.5a10,10,0,0,1,3.2.36,23.88,23.88,0,0,0,1.44-4,13.82,13.82,0,0,0-6.84-2.24c-6.93-.43-17.55,2.17-19.5,19.5s9.32,24.06,16.47,26.44c4,1.32,13,.7,20.15-3.78a26.7,26.7,0,0,1-4.8-9.08A25.16,25.16,0,0,1,41.4,61.68Z" transform="translate(-8.4 -3)"/>
</svg>