<svg xmlns="http://www.w3.org/2000/svg" xmlns:xlink="http://www.w3.org/1999/xlink" viewBox="0 0 75 75" version="1.1" x="0px" y="0px"><g><path style="" fill="#f05033" d="M 37.828125 31.425781 C 37.828125 30.785156 37.4375 30.210938 36.84375 29.972656 L 4.117188 16.960938 C 3.636719 16.769531 3.089844 16.828125 2.664062 17.121094 C 2.234375 17.410156 1.976562 17.894531 1.976562 18.414062 L 1.976562 25.824219 C 1.976562 26.464844 2.367188 27.039062 2.960938 27.273438 L 22.957031 35.226562 L 2.960938 43.183594 C 2.367188 43.421875 1.976562 43.996094 1.976562 44.636719 L 1.976562 52.042969 C 1.976562 52.558594 2.234375 53.046875 2.664062 53.335938 C 2.925781 53.511719 3.230469 53.605469 3.539062 53.605469 C 3.734375 53.605469 3.929688 53.570312 4.117188 53.496094 L 36.847656 40.484375 C 37.441406 40.246094 37.832031 39.671875 37.832031 39.03125 L 37.832031 31.425781 Z M 37.828125 31.425781 " stroke="none" fill-rule="nonzero" fill-opacity="1"/><path style="" fill="#f05033" d="M 71.460938 54.796875 L 39.25 54.796875 C 38.386719 54.796875 37.6875 55.492188 37.6875 56.359375 L 37.6875 59.578125 C 37.6875 60.445312 38.386719 61.140625 39.25 61.140625 L 71.460938 61.140625 C 72.324219 61.140625 73.023438 60.445312 73.023438 59.578125 L 73.023438 56.359375 C 73.023438 55.496094 72.324219 54.796875 71.460938 54.796875 Z M 71.460938 54.796875 " stroke="none" fill-rule="nonzero" fill-opacity="1"/></g></svg>