<svg xmlns="http://www.w3.org/2000/svg" 
    xmlns:xlink="http://www.w3.org/1999/xlink" version="1.1" x="0px" y="0px" viewBox="0 0 100 100" enable-background="new 0 0 100 100" xml:space="preserve">
    <g>
        <g>
            <path fill-rule="evenodd" clip-rule="evenodd" fill="#f05033" d="M73.5,76.768c0,1.104-0.896,2-2,2H28.375c-1.104,0-2-0.896-2-2    V65.705L22,67.505c0,7.048,0,12.013,0,12.013c0,2.209,1.791,4,4,4h48c2.209,0,4-1.791,4-4V66.702l-4.5-1.45V76.768z M26.375,52.85    l-0.563,1.275l0.563,0.225V52.85z M74,16.375H41.871L38,20.023v6.227c0,1.104-0.896,2-2,2h-9.981l-0.206,0.218L22,32.493v12.354    c1.352,0.707,3.063,1.639,4.375,2.36V32.449l11.688-0.136c0,0,2.188-0.188,3-0.875s0.75-2.375,0.75-2.375v-8.795H71.5    c1.104,0,2,0.896,2,2v24.987l4.5-2.439v-24.44C78,18.166,76.209,16.375,74,16.375z M73.5,54.604l0.813-1.979L73.5,50.907V54.604z"/>
        </g>
    </g>
    <g>
        <g>
            <polygon fill-rule="evenodd" clip-rule="evenodd" fill="#f05033" points="27.625,53.75 32.563,48.5 22,42.026 22,46.62     26.688,49.313 22,53.896 22,55.228 28.688,57.875 22.813,60.813 25.938,63.719 22,64.516 22,68.672 33,65.688 28.75,61.5     38.75,57.563   "/>
        </g>
    </g>
    <g>
        <g>
            <path fill-rule="evenodd" clip-rule="evenodd" fill="#f05033" d="M82.5,43.813v0.331L82.75,44L82.5,43.813z M72.563,53.75    l-11.125,3.813l10,3.938l-4.25,4.188L78,68.621v-3.795l-3.75-1.107l3.125-2.906L71.5,57.875l6.5-2.573v-1.589l-4.5-4.4l4.5-2.584    v-4.587L67.625,48.5L72.563,53.75z"/>
        </g>
    </g>
    <g>
        <g>
            <path fill-rule="evenodd" clip-rule="evenodd" fill="#f05033" d="M61.339,47.094H38.662v3h22.677V47.094z M56.693,59v-3H42.519v3    H56.693z M37.369,64.031v3h25.512v-3H37.369z"/>
        </g>
    </g>
</svg>