<svg xmlns="http://www.w3.org/2000/svg" 
    xmlns:xlink="http://www.w3.org/1999/xlink" version="1.1" x="0px" y="0px" viewBox="-247 370.9 100 100" enable-background="new -247 370.9 100 100" xml:space="preserve">
    <g fill="#f05033">
        <path d="M-152.8,408.1l-20.6,3.3c0,0,0-0.1,0-0.1l2.8-7.6c0.2-0.6-0.5-1.1-1-0.7l-21,17c-0.3,0.3-0.3,0.7,0,1l21,17   c0.5,0.4,1.2-0.1,1-0.7l-2.8-7.5c0,0,0-0.1,0-0.1l20.6,3.3c1,0.2,1.9-0.6,1.9-1.6v-21.6C-151,408.7-151.8,408-152.8,408.1z"/>
        <path d="M-220.4,403c-0.5-0.4-1.2,0.1-1,0.7l2.8,7.6c0,0,0,0.1,0,0.1l-20.6-3.3c-1-0.2-1.9,0.6-1.9,1.6v21.6c0,1,0.9,1.8,1.9,1.6   l20.6-3.3c0,0.1,0,0.1,0,0.1l-2.8,7.5c-0.2,0.6,0.5,1.1,1,0.7l21-17c0.3-0.3,0.3-0.7,0-1L-220.4,403z"/>
        <path d="M-200.7,412.6l-10.5-21.6c-0.1-0.2-0.3-0.3-0.5-0.2l-1.9,1c-0.2,0.1-0.2,0.3-0.1,0.5L-200.7,412.6z"/>
        <path d="M-178.9,392l-2-1.1c-0.2-0.1-0.3,0-0.4,0.1l-10.5,21.7l13-20.2C-178.7,392.2-178.7,392-178.9,392z"/>
        <path d="M-198.2,458c0,0.6,0.4,1.1,1,1.1h1.7c0.6,0,1-0.5,1-1.1l-1.8-31L-198.2,458z"/>
        <path d="M-194.5,383.4c0-0.6-0.4-1.1-1-1.1h-1.7c-0.6,0-1,0.5-1,1.1l1.8,31L-194.5,383.4z"/>
        <path d="M-213.4,451l1.4,0.8c0.3,0.2,0.7,0.1,0.9-0.3l10.4-21.4l-12.8,20C-213.8,450.4-213.7,450.8-213.4,451z"/>
        <path d="M-191.8,430.2l10.3,21.2c0.2,0.4,0.7,0.6,1.1,0.4l1-0.6c0.4-0.2,0.5-0.8,0.3-1.2L-191.8,430.2z"/>
    </g>
</svg>