<svg xmlns:dc="http://purl.org/dc/elements/1.1/" xmlns:cc="http://creativecommons.org/ns#" xmlns:rdf="http://www.w3.org/1999/02/22-rdf-syntax-ns#" xmlns:svg="http://www.w3.org/2000/svg" xmlns="http://www.w3.org/2000/svg" xmlns:sodipodi="http://sodipodi.sourceforge.net/DTD/sodipodi-0.dtd" xmlns:inkscape="http://www.inkscape.org/namespaces/inkscape" version="1.1" x="0px" y="0px" viewBox="0 0 100 100">
    <g transform="translate(0,-952.36218)">
        <path style="font-size:medium;font-style:normal;font-variant:normal;font-weight:normal;font-stretch:normal;text-indent:0;text-align:start;text-decoration:none;line-height:normal;letter-spacing:normal;word-spacing:normal;text-transform:none;direction:ltr;block-progression:tb;writing-mode:lr-tb;text-anchor:start;baseline-shift:baseline;opacity:1;color:#f05033;fill:#f05033;fill-opacity:1;stroke:none;stroke-width:4;marker:none;visibility:visible;display:inline;overflow:visible;enable-background:accumulate;font-family:Sans;-inkscape-font-specification:Sans" d="M 42.8125 7 A 2.0002 2.0002 0 0 0 41 9 L 41 19.375 C 38.791307 20.0227 36.672445 20.88449 34.6875 21.96875 L 27.375 14.625 A 2.0002 2.0002 0 0 0 24.5625 14.625 L 14.65625 24.53125 A 2.0002 2.0002 0 0 0 14.65625 27.375 L 22 34.6875 C 20.913622 36.67488 20.054862 38.78819 19.40625 41 L 9 41 A 2.0002 2.0002 0 0 0 7 43 L 7 57 A 2.0002 2.0002 0 0 0 9 59 L 19.40625 59 C 20.053449 61.2019 20.918783 63.30205 22 65.28125 L 14.65625 72.59375 A 2.0002 2.0002 0 0 0 14.65625 75.4375 L 24.5625 85.34375 A 2.0002 2.0002 0 0 0 27.375 85.34375 L 34.6875 78 C 36.672435 79.0843 38.791284 79.94605 41 80.59375 L 41 91 A 2.0002 2.0002 0 0 0 43 93 L 57 93 A 2.0002 2.0002 0 0 0 59 91 L 59 80.59375 C 61.212367 79.944874 63.347664 79.131563 65.34375 78.0625 L 72.625 85.34375 A 2.0002 2.0002 0 0 0 75.4375 85.34375 L 85.34375 75.4375 A 2.0002 2.0002 0 0 0 85.34375 72.625 L 78.03125 65.34375 C 79.101809 63.352485 79.941858 61.211884 80.59375 59 L 91 59 A 2.0002 2.0002 0 0 0 93 57 L 93 43 A 2.0002 2.0002 0 0 0 91 41 L 80.59375 41 C 79.945137 38.78819 79.086377 36.67488 78 34.6875 L 85.34375 27.375 A 2.0002 2.0002 0 0 0 85.34375 24.53125 L 75.4375 14.625 A 2.0002 2.0002 0 0 0 72.625 14.625 L 65.3125 21.96875 C 63.327555 20.88449 61.208693 20.0227 59 19.375 L 59 9 A 2.0002 2.0002 0 0 0 57 7 L 43 7 A 2.0002 2.0002 0 0 0 42.8125 7 z M 45 11 L 55 11 L 55 20.84375 A 2.0002 2.0002 0 0 0 56.53125 22.78125 C 59.435756 23.47644 62.156236 24.60733 64.625 26.125 A 2.0002 2.0002 0 0 0 67.09375 25.84375 L 74.03125 18.875 L 81.09375 25.9375 L 74.15625 32.875 A 2.0002 2.0002 0 0 0 73.84375 35.34375 C 75.36142 37.81253 76.523568 40.533 77.21875 43.4375 A 2.0002 2.0002 0 0 0 79.15625 45 L 89 45 L 89 55 L 79.15625 55 A 2.0002 2.0002 0 0 0 77.21875 56.53125 C 76.727808 58.582429 76.010454 60.55845 75.09375 62.40625 L 68.90625 56.21875 C 69.558199 54.25615 70 52.1901 70 50 C 69.999999 38.97794 61.021999 30 50 30 C 47.708893 30 45.524935 30.39657 43.5 31.09375 A 2.0002 2.0002 0 0 0 42.75 34.40625 L 52.46875 44.125 L 51.28125 51.28125 L 44.125 52.46875 L 34.40625 42.75 A 2.0002 2.0002 0 0 0 31.09375 43.5 C 30.39656 45.52495 30 47.7089 30 50 C 30 61.022 38.977998 70 50 70 C 52.190128 70 54.256102 69.55825 56.21875 68.90625 L 62.40625 75.09375 C 60.559546 76.001183 58.585126 76.695948 56.53125 77.1875 A 2.0002 2.0002 0 0 0 55 79.15625 L 55 89 L 45 89 L 45 79.15625 A 2.0002 2.0002 0 0 0 43.46875 77.1875 C 40.564294 76.4924 37.843787 75.36135 35.375 73.84375 A 2.0002 2.0002 0 0 0 32.90625 74.125 L 25.96875 81.09375 L 18.90625 74.03125 L 25.84375 67.09375 A 2.0002 2.0002 0 0 0 26.15625 64.625 C 24.63858 62.1562 23.476432 59.43585 22.78125 56.53125 A 2.0002 2.0002 0 0 0 20.84375 55 L 11 55 L 11 45 L 20.84375 45 A 2.0002 2.0002 0 0 0 22.78125 43.4375 C 23.476432 40.533 24.638579 37.81253 26.15625 35.34375 A 2.0002 2.0002 0 0 0 25.84375 32.875 L 18.90625 25.9375 L 25.96875 18.875 L 32.90625 25.84375 A 2.0002 2.0002 0 0 0 35.375 26.125 C 37.843764 24.60733 40.564245 23.47644 43.46875 22.78125 A 2.0002 2.0002 0 0 0 45 20.84375 L 45 11 z M 50 34 C 58.860247 34 65.999999 41.1397 66 50 C 66 52.1347 65.577384 54.15715 64.8125 56.03125 A 2.0002 2.0002 0 0 0 65.25 58.1875 L 81.125 74.03125 L 74.03125 81.125 L 58.1875 65.25 A 2.0002 2.0002 0 0 0 56.03125 64.8125 C 54.15709 65.5774 52.134696 66 50 66 C 41.139766 66 34 58.8602 34 50 C 34 49.3983 34.244279 48.86445 34.3125 48.28125 L 42.0625 56.03125 A 2.0002 2.0002 0 0 0 43.8125 56.59375 L 53.34375 54.96875 A 2.0002 2.0002 0 0 0 54.96875 53.34375 L 56.59375 43.8125 A 2.0002 2.0002 0 0 0 56.03125 42.0625 L 48.28125 34.3125 C 48.864416 34.2443 49.398278 34 50 34 z " transform="translate(0,952.36218)"/>
    </g>
</svg>