<svg xmlns="http://www.w3.org/2000/svg" xmlns:xlink="http://www.w3.org/1999/xlink" version="1.1" x="0px" y="0px" viewBox="0 0 24 24" style="enable-background:new 0 0 24 24;" xml:space="preserve">
    <g>
        <path fill="#f05033" d="M15.3,14.5c1.6,0,2.9-1.3,2.9-2.9c0-1.6-1.3-2.9-2.9-2.9c-1.6,0-2.9,1.3-2.9,2.9C12.4,13.3,13.7,14.5,15.3,14.5z    M15.3,10.1c0.9,0,1.6,0.7,1.6,1.6c0,0.9-0.7,1.6-1.6,1.6c-0.9,0-1.6-0.7-1.6-1.6C13.7,10.8,14.4,10.1,15.3,10.1z"/>
        <path fill="#f05033" d="M11.8,11.7c0-1.6-1.3-2.9-2.9-2.9C7.3,8.8,6,10.1,6,11.7c0,1.6,1.3,2.9,2.9,2.9C10.5,14.5,11.8,13.3,11.8,11.7z M7.3,11.7   c0-0.9,0.7-1.6,1.6-1.6c0.9,0,1.6,0.7,1.6,1.6c0,0.9-0.7,1.6-1.6,1.6C8,13.3,7.3,12.5,7.3,11.7z"/>
        <path fill="#f05033" d="M8.8,16.3c-0.4,0-0.7,0.3-0.7,0.6v2.2c0,0.4,0.3,0.6,0.7,0.6c0.4,0,0.7-0.3,0.6-0.6V17C9.5,16.6,9.2,16.3,8.8,16.3z"/>
        <path fill="#f05033" d="M11,16.3c-0.4,0-0.6,0.3-0.6,0.6v2.2c0,0.4,0.3,0.6,0.6,0.6s0.7-0.3,0.7-0.6V17C11.6,16.6,11.3,16.3,11,16.3z"/>
        <path fill="#f05033" d="M13.1,16.3c-0.4,0-0.6,0.3-0.6,0.6v2.2c0,0.4,0.3,0.6,0.6,0.6s0.7-0.3,0.7-0.6V17C13.7,16.6,13.4,16.3,13.1,16.3z"/>
        <path fill="#f05033" d="M15.2,16.3c-0.4,0-0.7,0.3-0.7,0.6v2.2c0,0.4,0.3,0.6,0.7,0.6c0.4,0,0.7-0.3,0.6-0.6V17C15.8,16.6,15.5,16.3,15.2,16.3z"/>
        <path fill="#f05033" d="M13,16c0.1,0,0.2,0,0.4-0.1c0.3-0.2,0.4-0.6,0.2-0.9l-0.9-1.4c-0.2-0.4-0.8-0.4-1.1,0L10.6,15c-0.2,0.3-0.1,0.7,0.2,0.9   c0.3,0.2,0.7,0.1,0.9-0.2l0.4-0.6l0.4,0.6C12.6,15.9,12.8,16,13,16z"/>
        <path fill="#f05033" d="M22,18.4c-0.7,0-1.4,0.4-1.7,1l-1.9-1.9c0.9-0.4,1.6-1.3,1.6-2.4V9.8c0-1.4-0.4-2.7-1-3.8l1.3-1.3c0.3,0.6,1,1,1.7,1   c1.1,0,2-0.9,2-2c0-1-0.7-1.8-1.6-2c-0.2-0.9-1-1.6-2-1.6c-1.1,0-2,0.9-2,2c0,0.7,0.4,1.4,1,1.7l-1.1,1.1c-1.4-1.8-3.7-3-6.1-3   c-2.5,0-4.8,1.2-6.2,3L4.7,3.7c0.6-0.3,1-1,1-1.7c0-1.1-0.9-2-2-2c-1,0-1.8,0.7-2,1.6C0.8,1.8,0,2.7,0,3.6c0,1.1,0.9,2,2,2   c0.7,0,1.4-0.4,1.7-1l1.4,1.4C4.6,7.2,4.2,8.4,4.2,9.8V15c0,1,0.6,1.9,1.5,2.3l-2,2c-0.3-0.6-1-1-1.7-1c-1.1,0-2,0.9-2,2   c0,1,0.7,1.8,1.6,2c0.2,0.9,1,1.6,2,1.6c1.1,0,2-0.9,2-2c0-0.7-0.4-1.4-1-1.7l2.8-2.8c0.3-0.3,0.3-0.7,0-0.9   c-0.1-0.1-0.3-0.2-0.5-0.2c0,0-0.1,0-0.1,0c-0.7,0-1.3-0.6-1.3-1.3V9.8c0-3.6,2.9-6.6,6.6-6.6c3.6,0,6.6,2.9,6.6,6.6V15   c0,0.7-0.6,1.3-1.3,1.3c-0.1,0-0.1,0-0.2,0c-0.2-0.1-0.5,0-0.6,0.2c-0.3,0.3-0.3,0.7,0,0.9l2.8,2.8c-0.6,0.3-1,1-1,1.7   c0,1.1,0.9,2,2,2c1,0,1.8-0.7,2-1.6c0.9-0.2,1.6-1,1.6-2C24,19.2,23.1,18.4,22,18.4z M20.3,1.4c0.4,0,0.7,0.3,0.7,0.7   c0,0,0,0.1,0,0.2c0,0.2,0,0.4,0.2,0.6C21.3,3,21.6,3,21.8,3c0.1,0,0.1,0,0.2,0c0.4,0,0.7,0.3,0.7,0.7c0,0.4-0.3,0.7-0.7,0.7   s-0.7-0.3-0.7-0.7c0,0,0-0.1,0-0.2c0-0.2,0-0.4-0.2-0.6c-0.1-0.1-0.3-0.2-0.5-0.2c0,0-0.1,0-0.1,0c-0.5,0.1-0.8-0.2-0.8-0.7   C19.6,1.7,19.9,1.4,20.3,1.4z M2,4.3C1.7,4.3,1.3,4,1.3,3.6c0-0.4,0.3-0.7,0.7-0.7c0,0,0.1,0,0.2,0c0.2,0,0.4,0,0.6-0.2   C3,2.6,3,2.4,3,2.2C3,2.1,3,2.1,3,2c0-0.4,0.3-0.7,0.7-0.7C4,1.3,4.3,1.6,4.3,2S4,2.7,3.7,2.7c0,0-0.1,0-0.2,0   c-0.2,0-0.4,0-0.6,0.2C2.7,3,2.7,3.3,2.7,3.5c0,0.1,0,0.1,0,0.2C2.7,4,2.4,4.3,2,4.3z M3.6,22.7c-0.4,0-0.7-0.3-0.7-0.7   c0,0,0-0.1,0-0.2c0.1-0.2,0-0.4-0.2-0.6C2.7,21.1,2.5,21,2.3,21c0,0-0.1,0-0.1,0c-0.1,0-0.1,0-0.2,0c-0.4,0-0.7-0.3-0.7-0.7   c0-0.4,0.3-0.7,0.7-0.7s0.7,0.3,0.7,0.7c0,0,0,0.1,0,0.2c0,0.2,0,0.4,0.2,0.6c0.2,0.2,0.4,0.2,0.6,0.2c0.1,0,0.1,0,0.2,0   c0.4,0,0.7,0.3,0.7,0.7C4.3,22.4,4,22.7,3.6,22.7z M22,21c0,0-0.1,0-0.2,0c-0.2,0-0.4,0-0.6,0.2c-0.2,0.2-0.2,0.4-0.2,0.6   c0,0.1,0,0.1,0,0.2c0,0.4-0.3,0.7-0.7,0.7s-0.7-0.3-0.7-0.7s0.3-0.7,0.7-0.7c0,0,0.1,0,0.2,0c0.2,0,0.4,0,0.6-0.2   c0.2-0.2,0.2-0.4,0.2-0.6c0-0.1,0-0.1,0-0.2c0-0.4,0.3-0.7,0.7-0.7s0.7,0.3,0.7,0.7C22.7,20.7,22.4,21,22,21z"/>
    </g>
</svg>