<svg xmlns="http://www.w3.org/2000/svg" data-name="Layer 1" viewBox="0 0 100 100" x="0px" y="0px">
    <path fill="#f05033" d="M50.2,36.36c19.59,0,40.67-4.23,40.67-13.51S69.79,9.33,50.2,9.33,9.53,13.56,9.53,22.85v14.1c0,9.29,21.08,13.51,40.67,13.51,13.17,0,27-1.92,34.67-6v6.66c-.11,2.18-12.39,7.51-34.67,7.51S15.64,53.3,15.53,51.12a3,3,0,0,0-6,0V65.65c0,9.29,21.08,13.51,40.67,13.51,13.17,0,27-1.92,34.67-6v6.67c-.11,2.18-12.4,7.51-34.67,7.51S15.64,82,15.53,79.84a3,3,0,0,0-6,0c0,9.29,21.08,13.51,40.67,13.51s40.67-4.23,40.67-13.51V65.66h0a3,3,0,0,0-6,0c-.11,2.18-12.39,7.51-34.67,7.51s-34.57-5.33-34.67-7.51v-7c7.66,4.08,21.5,6,34.67,6,19.59,0,40.67-4.23,40.67-13.51V36.94a3,3,0,0,0-6,0c-.11,2.18-12.4,7.51-34.67,7.51s-34.56-5.33-34.67-7.51V30.37C23.19,34.45,37,36.36,50.2,36.36Zm-26-17.51a3,3,0,0,1,2.84,2c1.83,1.16,9.81,3.06,23.12,3.06,10,0,17-1.07,20.63-2.1-3.63-1-10.63-2.1-20.63-2.1a3,3,0,0,1,0-6c10.82,0,29,1.05,29,8.1,0,4.06-5.36,5.63-10,6.55A103.18,103.18,0,0,1,50.2,29.94c-10.82,0-29-1.05-29-8.1A3,3,0,0,1,24.24,18.85Z"/>
</svg>