<svg xmlns="http://www.w3.org/2000/svg" xmlns:xlink="http://www.w3.org/1999/xlink" version="1.1" x="0px" y="0px" viewBox="-247.64 470.945 100 100" enable-background="new -247.64 470.945 100 100" xml:space="preserve">
    <polygon fill="#f05033" points="-174.708,540.945 -162.76,520.944 -174.708,500.945 -190.185,500.945 -182.135,514.419 -203.232,514.419   -203.232,527.469 -182.135,527.469 -190.185,540.945 "/>
    <path fill="#f05033" d="M-157.7,490.945h-50.592h-5.059v5v2.976h-29.29l1.723,5h27.567v8.016h-24.806l1.724,5h23.082v8.016h-20.32l1.723,5h18.598  v8.017h-15.836l1.723,5h14.113v2.976v5h5.059h50.592h5.06v-5v-50v-5H-157.7z M-157.7,545.945h-50.592v-50h50.592V545.945z"/>
</svg>