<svg xmlns="http://www.w3.org/2000/svg" 
    xmlns:xlink="http://www.w3.org/1999/xlink" version="1.1" x="0px" y="0px" viewBox="0 0 66 66" enable-background="new 0 0 66 66" xml:space="preserve">
    <g>
        <path fill="#f05033" d="M64.5,20.6c0.4-0.4,0.4-1,0-1.4c-0.4-0.4-1-0.4-1.4,0c-0.9,0.9-2,1.5-3.2,2L44.2,5.9c0.4-1.2,1.1-2.3,2-3.2   c0.4-0.4,0.4-1,0-1.4c-0.4-0.4-1-0.4-1.4,0c-4.4,4.5-3.8,13.1-2.3,19.3c-1.8-0.4-4.9-0.9-8.2-0.9c-4.9,0-8.7,1.2-11,3.6   C18,28.5,20,38.9,21,42.7c-6.2-1.4-15-1.9-19.4,2.6c-0.4,0.4-0.4,1,0,1.4c0.4,0.4,1,0.4,1.4,0c0.7-0.7,1.5-1.2,2.4-1.7l16.1,15.8   c-0.4,0.9-0.9,1.7-1.6,2.4c-0.4,0.4-0.4,1,0,1.4c0.4,0.4,1,0.4,1.4,0c4.5-4.6,3.8-13.3,2.3-19.5c1.8,0.4,5,1,8.4,1   c4.9,0,8.7-1.2,11-3.6c5.1-5.2,3.3-15.3,2.3-19.3C51.4,24.7,60,25.1,64.5,20.6z M43.7,16.7l5.4,5.3c-1.5-0.2-3-0.5-4.5-0.9   C44.4,20.3,44,18.7,43.7,16.7z M43.6,25.1l-3-2.9c1.1,0.2,1.9,0.4,2.4,0.5C43.2,23.3,43.4,24.1,43.6,25.1z M37.3,21.8l6.8,6.7   c0.2,1.8,0.3,3.8,0.1,5.8L31.6,21.8c0.8-0.1,1.7-0.2,2.7-0.2C35.3,21.6,36.3,21.7,37.3,21.8z M42.1,40.5L25.3,24.1   c1-0.8,2.3-1.4,3.8-1.9l14.7,14.4C43.5,38.1,42.9,39.4,42.1,40.5z M36.7,43.7L22.2,29.5c0.3-1.5,0.9-2.8,1.7-4l16.7,16.4   C39.6,42.7,38.3,43.3,36.7,43.7z M22.7,41.1l2.4,2.4c-0.8-0.2-1.5-0.3-2-0.4C23,42.6,22.8,42,22.7,41.1z M22.5,50.7l-6.9-6.8   c2.6,0.3,4.8,0.8,5.8,1C21.6,45.8,22.2,48,22.5,50.7z M7.4,44.3c1.6-0.4,3.4-0.6,5.1-0.6l10.1,9.9c0,1.7-0.1,3.5-0.5,5.1L7.4,44.3z    M28.5,44l-6.4-6.3c-0.2-1.8-0.4-3.8-0.2-5.8l12.4,12.2c-0.8,0.1-1.5,0.1-2.4,0.1C30.7,44.2,29.6,44.1,28.5,44z M52.3,22.2   l-8.9-8.7c-0.1-1.8-0.1-3.6,0.3-5.4l14,13.7C56,22.2,54.1,22.3,52.3,22.2z"/>
    </g>
</svg>