<svg xmlns="http://www.w3.org/2000/svg" 
    xmlns:xlink="http://www.w3.org/1999/xlink" version="1.1" x="0px" y="0px" viewBox="0 0 512 512" style="enable-background:new 0 0 512 512;" xml:space="preserve">
    <g fill="#f05033">
        <path d="M223.4,275.4l-21.1,79.4c-1.1,4.1,0.1,8.5,3,11.5c2.3,2.3,5.4,3.6,8.6,3.6c1,0,1.9-0.1,2.9-0.4l80.3-19.9   c8.9-2.2,17.1-6.8,23.6-13.3l160.2-160.2c19.7-19.7,19.7-51.8,0-71.5l-12.4-12.4c-19.7-19.7-51.8-19.7-71.5,0L236.5,252.6   C230.2,258.9,225.7,266.7,223.4,275.4z M415.6,207.5l-50-50l17.6-17.6l50,50L415.6,207.5z M432.7,101.3c6.8,0,13.6,2.6,18.8,7.8   l12.4,12.4c10.4,10.4,10.4,27.2,0,37.6l-13.8,13.8l-50-50l13.8-13.8C419.1,103.9,425.9,101.3,432.7,101.3z M253.5,269.5l95.1-95.1   l50,50l-94.9,94.9c-3.4,3.4-7.7,5.8-12.4,7l-60.6,15l15.9-59.8C247.8,277,250.2,272.8,253.5,269.5z"/>
        <path d="M28.3,180h239.9c6.6,0,12-5.4,12-12s-5.4-12-12-12H28.3c-6.6,0-12,5.4-12,12S21.7,180,28.3,180z"/>
        <path d="M28.3,265h144c6.6,0,12-5.4,12-12s-5.4-12-12-12h-144c-6.6,0-12,5.4-12,12S21.7,265,28.3,265z"/>
        <path d="M28.3,350h144c6.6,0,12-5.4,12-12s-5.4-12-12-12h-144c-6.6,0-12,5.4-12,12S21.7,350,28.3,350z"/>
        <path d="M28.3,435h277.9c6.6,0,12-5.4,12-12s-5.4-12-12-12H28.3c-6.6,0-12,5.4-12,12S21.7,435,28.3,435z"/>
    </g>
</svg>