<svg xmlns="http://www.w3.org/2000/svg" xmlns:xlink="http://www.w3.org/1999/xlink" version="1.1" x="0px" y="0px" viewBox="0 0 90 90" enable-background="new 0 0 90 90" xml:space="preserve">
    <g>
        <path fill="#f05033" d="M68.1,24.5H21.2c-1.1,0-1.9-0.9-1.9-1.9v-2.4c0-1.1,0.9-1.9,1.9-1.9h46.9c1.1,0,1.9,0.9,1.9,1.9v2.4   C70,23.6,69.2,24.5,68.1,24.5z"/>
    </g>
    <g>
        <path fill="#f05033" d="M40.3,54.6C40.3,54.6,40.3,54.6,40.3,54.6l0,23.4c0,1.5,1.6,2.4,2.9,1.7l4.9-2.8c0.6-0.3,1-1,1-1.7V54.6c0,0,0-0.1,0-0.1   H40.3z"/>
    </g>
    <g>
        <path fill="#f05033" d="M64,28.7H25.3c-1.6,0-2.5,1.9-1.5,3.1l15.4,18.7h11l15.4-18.7C66.5,30.6,65.6,28.7,64,28.7z"/>
    </g>
</svg>