<svg xmlns="http://www.w3.org/2000/svg" 
    xmlns:xlink="http://www.w3.org/1999/xlink" version="1.1" x="0px" y="0px" viewBox="0 0 100 100" enable-background="new 0 0 100 100" xml:space="preserve">
    <g>
        <g>
            <path fill="#f05033" d="M70.385,85.515c-0.517,0.001-1.019-0.266-1.298-0.743c-0.067-0.116-6.931-11.654-18.015-13.839    c-12.501-2.459-24.557,5.996-24.677,6.082c-0.676,0.482-1.611,0.323-2.092-0.352c-0.48-0.675-0.323-1.611,0.351-2.092    c0.535-0.38,13.247-9.286,26.998-6.582c12.433,2.45,19.723,14.749,20.026,15.271c0.417,0.715,0.175,1.633-0.54,2.05    C70.901,85.449,70.641,85.515,70.385,85.515z"/>
        </g>
        <g>
            <path fill="#f05033" d="M65.443,88.956c-0.521,0-1.028-0.272-1.306-0.757c-0.053-0.093-5.399-9.301-14.458-11.269    c-10.225-2.223-19.541,5.206-19.634,5.281c-0.645,0.522-1.589,0.423-2.109-0.221c-0.522-0.644-0.423-1.588,0.221-2.109    c0.424-0.344,10.543-8.406,22.159-5.883c10.389,2.257,16.187,12.292,16.429,12.718c0.408,0.72,0.156,1.634-0.563,2.043    C65.949,88.893,65.694,88.956,65.443,88.956z"/>
        </g>
        <g>
            <path fill="#f05033" d="M60.245,91.679c-0.444,0-0.884-0.196-1.18-0.572c-2.023-2.568-6.189-6.83-8.753-7.334    C40.778,81.9,35.009,88,34.768,88.261c-0.562,0.607-1.509,0.647-2.118,0.088c-0.609-0.56-0.652-1.504-0.094-2.114    c0.285-0.312,7.106-7.612,18.334-5.405c4.489,0.881,9.927,7.652,10.533,8.422c0.513,0.651,0.399,1.594-0.251,2.106    C60.897,91.573,60.57,91.679,60.245,91.679z"/>
        </g>
        <g>
            <path fill="#f05033" d="M42.239,92.396c-0.441,0-0.878-0.193-1.174-0.565c-0.516-0.648-0.409-1.592,0.239-2.108    c3.714-2.955,7.863-3.081,11.997-0.361c0.692,0.455,0.884,1.386,0.429,2.077c-0.455,0.694-1.386,0.885-2.077,0.429    c-3.072-2.021-5.768-1.957-8.48,0.203C42.896,92.29,42.566,92.396,42.239,92.396z"/>
        </g>
        <path fill="#f05033" d="M74.346,76.078c-1.337-1.053-2.798-2.276-4.345-3.572c-5.786-4.846-12.163-10.173-17.538-11.419   c0.628-0.57,1.314-1.249,2.104-2.087H50.3c-1.368,1.219-2.484,1.905-4.268,2.998c-0.536,0.329-1.128,0.691-1.797,1.111   c-0.702,0.44-0.913,1.366-0.473,2.068c0.285,0.453,0.773,0.702,1.272,0.702c0.272,0,0.548-0.074,0.796-0.229   c0.659-0.414,1.241-0.771,1.769-1.095c0.265-0.162,0.514-0.315,0.756-0.465c0.191,0.011,0.387-0.015,0.578-0.083   c4.407-1.543,12.923,5.591,19.141,10.799c1.564,1.31,3.042,2.547,4.415,3.629c0.274,0.216,0.602,0.321,0.927,0.321   c0.444,0,0.884-0.196,1.18-0.572C75.109,77.534,74.997,76.591,74.346,76.078z"/>
        <g>
            <path fill="#f05033" d="M23.081,41.497c-0.643,0-1.238-0.417-1.435-1.064c-0.241-0.792,0.206-1.63,0.999-1.872    c6.281-1.911,6.955-4.884,7.887-8.999c0.833-3.679,1.779-7.849,6.897-11.592c0.667-0.489,1.606-0.344,2.096,0.326    c0.489,0.668,0.343,1.607-0.326,2.096c-4.212,3.08-4.955,6.36-5.742,9.833c-0.979,4.32-1.992,8.787-9.94,11.206    C23.373,41.476,23.226,41.497,23.081,41.497z"/>
        </g>
        <path fill="#f05033" d="M41.594,45c0.409-0.364,0.78-0.734,1.094-1.113c2.838-3.427,4.543-11.158,5.473-17.042   c0.351-2.255,2.408-3.838,4.673-3.594c1.198,0.127,2.304,0.75,3.034,1.708c0.729,0.958,1.034,2.19,0.837,3.377   C55.969,32.728,54.531,39.609,52.13,45h3.267c2.083-5.106,3.427-11.161,4.265-16.17c0.333-2.001-0.181-4.074-1.409-5.688   s-3.09-2.662-5.105-2.874c-3.871-0.399-7.354,2.278-7.952,6.111c-1.232,7.791-2.944,13.329-4.82,15.594   c-0.865,1.045-2.332,2.067-4.082,3.027H41.594z"/>
        <path fill="#f05033" d="M41.515,59c-7.953,4.833-18.385,9.137-18.529,9.196c-0.767,0.314-1.133,1.19-0.819,1.957   c0.238,0.58,0.798,0.931,1.388,0.931c0.189,0,0.382-0.036,0.568-0.112c0.698-0.286,14.597-6.02,22.828-11.972H41.515z"/>
        <path fill="#f05033" d="M60.562,45c0.649-7.36,3.911-13.572,3.96-13.663c0.391-0.73,0.115-1.639-0.614-2.03   c-0.732-0.394-1.641-0.116-2.03,0.613c-0.216,0.403-3.72,7.055-4.347,15.08H60.562z"/>
        <path fill="#f05033" d="M75.083,68.748C74.98,68.709,65.05,64.897,62.161,59h-3.246c0.082,0.218,0.159,0.437,0.249,0.654   c3.046,7.364,14.378,11.719,14.858,11.9c0.175,0.065,0.354,0.097,0.53,0.097c0.605,0,1.176-0.369,1.403-0.97   C76.249,69.907,75.858,69.041,75.083,68.748z"/>
        <g>
            <path fill="#f05033" d="M76.221,61.847c-3.036-0.311-5.395-1.274-7.063-2.847h-3.844c0.123,0.194,0.229,0.401,0.362,0.586    c2.172,3.007,5.617,4.771,10.237,5.245c0.053,0.005,0.104,0.008,0.155,0.008c0.76,0,1.411-0.575,1.49-1.347    C77.644,62.668,77.045,61.931,76.221,61.847z"/>
        </g>
        <path fill="#f05033" d="M87.5,56h-75C10.567,56,9,54.433,9,52.5v-1c0-1.933,1.567-3.5,3.5-3.5h75c1.933,0,3.5,1.567,3.5,3.5v1   C91,54.433,89.433,56,87.5,56z"/>
        <path fill="#f05033" d="M21.904,35.877c0.803,0.178,1.608-0.329,1.79-1.137c0.013-0.058,1.341-5.845,5.35-11.32   c5.262-7.185,12.478-10.493,21.462-9.84c7.269,0.531,13.012,3.258,17.071,8.105C73.681,28.975,74.66,39.433,74.704,45h3.021   c-0.024-5.974-1.076-17.146-7.837-25.229c-4.602-5.5-11.049-8.59-19.163-9.183C26.638,8.841,20.822,33.836,20.766,34.09   C20.586,34.898,21.096,35.697,21.904,35.877z"/>
        <path fill="#f05033" d="M29.236,45c3.061-1.017,6.282-2.762,8.332-5.767c2.299-3.371,3.521-7.088,4.599-10.368   c2.246-6.831,3.718-10.387,10.198-10.173c7.609,0.249,15.789,6.979,15.958,18.959c0.04,2.838,0.119,5.27,0.285,7.348h3.016   c-0.178-2.095-0.262-4.585-0.301-7.39c-0.195-13.841-9.863-21.622-18.86-21.916c-9.016-0.299-11.12,6.075-13.145,12.234   c-1.066,3.242-2.168,6.594-4.228,9.614c-3.918,5.744-13.995,5.873-14.097,5.874c-0.828,0.005-1.496,0.68-1.491,1.508   c0,0.026,0.007,0.05,0.008,0.076H29.236z"/>
        <path fill="#f05033" d="M48.935,45c3.309-6.71,4.968-16.549,5.052-17.059c0.136-0.817-0.417-1.589-1.234-1.725   c-0.812-0.135-1.59,0.417-1.725,1.235C51.007,27.58,49.088,38.948,45.547,45H48.935z"/>
        <path fill="#f05033" d="M28.645,59c-3.848,1.679-6.866,2.812-6.939,2.839c-0.776,0.289-1.171,1.153-0.881,1.93   c0.225,0.604,0.797,0.976,1.405,0.976c0.174,0,0.352-0.03,0.524-0.095c0.445-0.165,6.811-2.555,12.998-5.649H28.645z"/>
    </g>
</svg>