<svg xmlns="http://www.w3.org/2000/svg" data-name="Layer 1" viewBox="0 0 438.53 350.66249999999997" x="0px" y="0px">
    <rect fill="#f05033" x="24.41" y="240.77" width="42.6" height="17.04" rx="5.68" ry="5.68"/>
    <circle fill="#f05033" cx="162.66" cy="341.46" r="7.1" transform="translate(-100.16 -44.24) rotate(-13.28)"/>
    <path fill="#f05033" d="M400.77,311.64a29.82,29.82,0,0,0-28.09,19.88h-6.3a29.78,29.78,0,0,0-56.17,0H249.28V323H198.16v8.52h-7.42a29.78,29.78,0,0,0-56.17,0H98.76v17h35a29.79,29.79,0,0,0,57.87,0h6.57v5.68h51.12v-5.68h60.08a29.79,29.79,0,0,0,57.87,0h4.61a29.81,29.81,0,1,0,28.93-36.92ZM181,343.33a15.09,15.09,0,0,1-.25,1.64s0,.11,0,.17a18.82,18.82,0,0,1-1.05,3.42,18.46,18.46,0,0,1-34.08,0,18.07,18.07,0,0,1-1.05-3.42,1.22,1.22,0,0,1,0-.17c-.1-.54-.19-1.09-.25-1.64s-.09-1.24-.09-1.87a17.7,17.7,0,0,1,.18-2.43c0-.19.05-.38.08-.56a20.21,20.21,0,0,1,.49-2.21.29.29,0,0,0,0-.09,20.52,20.52,0,0,1,.89-2.34,1,1,0,0,0,.07-.15,18.83,18.83,0,0,1,1.19-2.16,18.43,18.43,0,0,1,31.08,0,18.76,18.76,0,0,1,1.18,2.16l.07.15a17.35,17.35,0,0,1,.89,2.34s0,.06,0,.09a18.12,18.12,0,0,1,.49,2.21l.09.56a19.43,19.43,0,0,1,.18,2.43C181.12,342.09,181.08,342.71,181,343.33Zm175.64,0c-.06.55-.15,1.1-.25,1.64l0,.17a18.07,18.07,0,0,1-1.05,3.42,18.46,18.46,0,0,1-34.08,0,18.82,18.82,0,0,1-1.05-3.42.86.86,0,0,0,0-.17c-.1-.54-.19-1.09-.24-1.64a16.61,16.61,0,0,1-.1-1.87A17.7,17.7,0,0,1,320,339l.09-.56a16.42,16.42,0,0,1,.49-2.21s0-.06,0-.09a17.35,17.35,0,0,1,.89-2.34l.07-.15a18.76,18.76,0,0,1,1.18-2.16,18.43,18.43,0,0,1,31.08,0,18.76,18.76,0,0,1,1.18,2.16l.08.15a18.76,18.76,0,0,1,.88,2.34l0,.09a20.21,20.21,0,0,1,.49,2.21c0,.18.06.37.08.56a17.7,17.7,0,0,1,.18,2.43C356.75,342.09,356.72,342.71,356.66,343.33Zm44.11,16.59a18.46,18.46,0,0,1-17-11.36,18.82,18.82,0,0,1-1.05-3.42l0-.17c-.1-.54-.19-1.09-.24-1.64a16.61,16.61,0,0,1-.1-1.87,17.7,17.7,0,0,1,.18-2.43c0-.19.06-.38.09-.56a16.42,16.42,0,0,1,.49-2.21.29.29,0,0,1,0-.09,17.35,17.35,0,0,1,.89-2.34l.07-.15a18.76,18.76,0,0,1,1.18-2.16,18.43,18.43,0,0,1,31.13.09l0,0a18.44,18.44,0,0,1-15.62,28.27Z" transform="translate(-26.06 -90.75)"/>
    <path fill="#f05033" d="M248.67,181.05c.1.09.22.17.32.27a28.86,28.86,0,0,1,8.45,15.21L266,247.88a20.76,20.76,0,0,1-10.81,21.23l-24.52,12.26a33.2,33.2,0,0,0-9.56,8.09l-8.84,12.16,18.32,1.5L302.79,323l11.36-14.2V172.48H250.47L241.22,176l3.24,1.86A22.87,22.87,0,0,1,248.67,181.05Z" transform="translate(-26.06 -90.75)"/>
    <path fill="#f05033" d="M464.23,269c-3.36-17-33.58-56.8-33.58-56.8H393.71V198H340l-20.15-25.56-.22,132.06H446.53S467.58,286.08,464.23,269Z" transform="translate(-26.06 -90.75)"/>
    <path fill="#f05033" d="M78.88,262.54a4.77,4.77,0,0,1-5.68,4.72l-15.39-2.19-1.65,4.05v45.67a11.24,11.24,0,0,0,11.36,11h59a38,38,0,0,1,26.17-23.55V236.07a11.24,11.24,0,0,0-11.36-11H85.53c-5.76,0-12.24,4.24-15.16,9.67h6.95a4.72,4.72,0,0,1,4.86,5.52Zm9.29,2.82,3.47-28.66a5.64,5.64,0,0,1,5.49-4.77h37a5.29,5.29,0,0,1,5.24,4.77l2,28.66a4.48,4.48,0,0,1-4.59,4.77H92.5A4.21,4.21,0,0,1,88.17,265.36Z" transform="translate(-26.06 -90.75)"/>
    <rect fill="#f05033" x="413.05" y="220.89" width="8.52" height="42.6" rx="2.84" ry="2.84"/>
    <path fill="#f05033" d="M183.58,301l15.68-21.55c.59-.82,1.31-1.67,2.06-2.52a52.85,52.85,0,0,1,3.74-3.75,47.45,47.45,0,0,1,9.91-7l24.52-12.26a4.06,4.06,0,0,0,1.62-3.19l-8.56-51.36a4.37,4.37,0,0,0-.22-.84,8.05,8.05,0,0,0-.44-1c-.12-.23-.24-.47-.38-.7s-.38-.65-.6-1l-.33-.46c-.29-.39-.6-.77-.91-1.11l-.15-.17a8.14,8.14,0,0,0-1.09-1,3.23,3.23,0,0,0-.5-.35l-15.32-8.75-7.13,2.74H179.92l-73.84,17-17,14.2H157.2v82.36Z" transform="translate(-26.06 -90.75)"/>
    <path fill="#f05033" d="M121.48,195.2l8.35-14.11A36.3,36.3,0,0,0,145,182.36l46.25-7.71,7.43,8.52,3.42-1.68-6.45-7.57.71-.12a22.49,22.49,0,0,1,12,2.16l25,14.27a14.82,14.82,0,0,1,6,8.63L248,250.21a6.7,6.7,0,0,1-3.15,6.2l-24.53,12.26a47.63,47.63,0,0,0-14.68,12.44l-17.71,24.35,9.19,6.68,17.71-24.35a35.9,35.9,0,0,1,10.58-9l24.52-12.26a18.06,18.06,0,0,0,9.28-18.23L250.6,197A26,26,0,0,0,239,180.36l-25-14.26a33.37,33.37,0,0,0-19.55-3.5l-7.44,1.24-25.38-29.77-.14.12a4,4,0,1,0-3.85,2.88,4.17,4.17,0,0,0,.71-.07h0l24.09,27.6-39.34,6.56a23.41,23.41,0,0,1-7.26-.3l20-33.82L79.76,90.75l-53.7,84.66,55.66,28.31ZM91,138.73l39.48,22.49-2.81,4.93L88.2,143.66Zm-10.3,17.7,39.49,22.49-2.81,4.93L77.9,161.36Z" transform="translate(-26.06 -90.75)"/>
    <circle fill="#f05033" cx="338.29" cy="341.46" r="7.1" transform="translate(-95.47 -3.89) rotate(-13.28)"/>
    <circle fill="#f05033" cx="400.77" cy="341.46" r="7.1" transform="translate(-150.13 292.65) rotate(-45)"/>
</svg>