<svg xmlns:rdf="http://www.w3.org/1999/02/22-rdf-syntax-ns#" xmlns="http://www.w3.org/2000/svg" xmlns:cc="http://creativecommons.org/ns#" xmlns:dc="http://purl.org/dc/elements/1.1/" version="1.1" viewBox="0 0 100 100" x="0px" y="0px">
    <path fill="#f05033" style="baseline-shift:baseline;block-progression:tb;color:#000000;direction:ltr;text-indent:0;enable-background:accumulate;text-transform:none;" d="m31.323,5,0,33.87c-4.5772,1.2828-7.9671,5.4824-7.9671,10.449,0,4.9668,3.3899,9.1665,7.9671,10.449v35.231h5.8052v-35.231c4.5772-1.2828,7.9671-5.4824,7.9671-10.449,0-4.9668-3.3899-9.1665-7.9671-10.449v-33.87h-5.8052zm36.873,7.6868-23.621,18.336-1.2011,9.6886,9.6886,1.2011,23.581-18.336-8.4475-10.89zm-21.139,23.621c0.4977-0.13387,1.0234,0.04634,1.3612,0.48043,0.45037,0.57879,0.33851,1.4313-0.24021,1.8817-0.57879,0.45037-1.3913,0.33857-1.8416-0.24021-0.45038-0.57879-0.33852-1.4313,0.24021-1.8817,0.1447-0.11259,0.31453-0.19559,0.48043-0.24021zm-12.851,7.927c2.8375,0,5.0845,2.247,5.0845,5.0845s-2.247,5.0845-5.0845,5.0845-5.0445-2.247-5.0445-5.0845,2.207-5.0845,5.0445-5.0845z"/>
</svg>