<svg xmlns="http://www.w3.org/2000/svg" data-name="Layer 1" viewBox="0 0 100 100" x="0px" y="0px">
    <path fill="#f05033" d="M53.52441,12.88086h-.01953c-14.63574.00488-29.80176,9.19141-30.68945,29.70215a5.87557,5.87557,0,0,1-.8125,2.7041L15.80957,55.83594a3.08249,3.08249,0,0,0,2.6582,4.64355h4.06446v8.22559a6.33748,6.33748,0,0,0,6.33007,6.33008h6.05958v10.084a2,2,0,0,0,4,0v-12.084a2.0001,2.0001,0,0,0-2-2H28.8623a2.33227,2.33227,0,0,1-2.33007-2.33008V58.47949a2.0001,2.0001,0,0,0-2-2H20.07031l5.38184-9.167a9.88348,9.88348,0,0,0,1.35937-4.55566c.82715-19.09278,14.89746-25.87207,26.69532-25.876h.0166a27.331,27.331,0,0,1,19.15527,7.98926A26.958,26.958,0,0,1,67.07031,67.376a2.00086,2.00086,0,0,0-1.00879,1.7373V85.11914a2,2,0,0,0,4,0V70.249a30.97642,30.97642,0,0,0,5.44239-48.21A31.35181,31.35181,0,0,0,53.52441,12.88086Z"/>
</svg>