<svg xmlns="http://www.w3.org/2000/svg" data-name="Layer 1" viewBox="0 0 100 100" x="0px" y="0px"><g data-name="Group"><path fill="#f05033" data-name="Compound Path" d="M85.5,20.9h-8V7.7H23.1a8.6,8.6,0,0,0-8.6,8.6V83.7a8.6,8.6,0,0,0,8.6,8.6H85.5ZM23.1,11.7H73.5v9.2H23.1a4.6,4.6,0,0,1,0-9.2Zm-4.6,72V23.6a8.5,8.5,0,0,0,4.6,1.3h5.5V88.3H23.1A4.6,4.6,0,0,1,18.5,83.7Zm63.1,4.6h-49V24.9h49Z"/><path fill="#f05033" data-name="Compound Path" d="M48.2,67V80.6H65.9V67a18.4,18.4,0,1,0-17.7,0Zm13.7,9.6H52.2V67.7h9.7ZM57,36.5a14.3,14.3,0,0,1,6.4,27.2H59v-10h3.8v-4H51.3v4H55v10H50.7A14.3,14.3,0,0,1,57,36.5Z"/></g></svg>