<svg xmlns="http://www.w3.org/2000/svg" xmlns:xlink="http://www.w3.org/1999/xlink" version="1.0" x="0px" y="0px" viewBox="0 0 100 100" enable-background="new 0 0 100 100" xml:space="preserve">
    <path fill="#f05033" d="M83.338,49.999c-2.464,0-4.591,1.351-5.745,3.333H50v6.67h27.593c1.154,1.982,3.281,3.33,5.745,3.33  c3.677,0,6.662-2.979,6.662-6.666C90,52.986,87.015,49.999,83.338,49.999z"/>
    <path fill="#f05033" d="M83.338,23.332c-2.464,0-4.591,1.351-5.745,3.334H50v6.665h27.593c1.154,1.986,3.281,3.334,5.745,3.334  C87.015,36.665,90,33.683,90,30C90,26.32,87.015,23.332,83.338,23.332z"/>
    <rect fill="#f05033" x="23.333" y="53.332" width="19.999" height="6.67"/>
    <rect fill="#f05033" x="23.333" y="66.666" width="19.999" height="6.668"/>
    <rect fill="#f05033" x="23.333" y="40" width="19.999" height="6.668"/>
    <rect fill="#f05033" x="23.333" y="26.666" width="19.999" height="6.665"/>
    <path fill="#f05033" d="M63.336,63.332c-2.464,0-4.588,1.354-5.745,3.334H50v6.668h7.591c1.157,1.986,3.281,3.334,5.745,3.334  c3.68,0,6.666-2.982,6.666-6.668C70.002,66.32,67.016,63.332,63.336,63.332z"/>
    <path fill="#f05033" d="M70.004,36.665c-2.464,0-4.591,1.351-5.745,3.334H50v6.668h14.259c1.154,1.983,3.281,3.331,5.745,3.331  c3.678,0,6.663-2.979,6.663-6.665C76.667,39.654,73.682,36.665,70.004,36.665z"/>
    <path fill="#f05033" d="M56.668,19.998c0-3.683-2.985-6.666-6.668-6.666H16.665c-3.68,0-6.665,2.985-6.665,6.666V80  c0,3.686,2.985,6.668,6.665,6.668H50c3.683,0,6.668-2.982,6.668-6.668H16.665V19.998H56.668z"/>
</svg>