<svg xmlns="http://www.w3.org/2000/svg" 
    xmlns:xlink="http://www.w3.org/1999/xlink" version="1.1" x="0px" y="0px" viewBox="0 0 100 100" style="enable-background:new 0 0 100 100;" xml:space="preserve">
    <path fill="#f05033" d="M16,17.2c1,3.8,3.6,6,7.5,6.8c0.3,0.1,0.5,0.1,0.8,0.1c1.5-0.2,2.1,0.6,2.6,1.8c8.5,18.8,17,37.5,25.5,56.2  c4.2,9.3,14.7,14.6,24.6,12.4c6.6-1.4,11.7-5,15-10.8c3.1-5.6,3.8-11.5,1.9-17.7c-0.6-1.9-1.5-3.6-2.3-5.4  c-2.2-4.9-4.4-9.7-6.6-14.6c-0.1-0.3-0.2-0.7-0.6-0.9c-0.3,0.4-0.3,0.8-0.4,1.3c-0.8,6.3-1.5,12.5-2.3,18.8  c-0.2,1.8-0.4,3.7-0.6,5.6c0,0.2-0.2,0.6,0.1,0.7c0.2,0.1,0.4-0.2,0.6-0.3c1.6-1.4,3.2-2.7,4.7-4.1c1.1-0.9,1.2-0.9,1.7,0.4  c1.8,5.6,1,10.8-2.6,15.4c-4.4,5.6-10.3,7.6-17.3,5.8c-4.9-1.2-8.5-4.3-10.6-8.9c-3.2-7-6.4-14.1-9.6-21.1c-1.4-2.9-2.8-5.9-4.1-8.8  c-2.5-5.8-5.2-11.5-7.8-17.3c-1.5-3.3-3-6.5-4.5-9.8c-0.3-0.6-0.2-1.1,0.3-1.6c1.5-1.7,2.3-3.7,2.5-5.8c0.2-1.6-0.1-3.2-0.8-4.7  C31.6,5.9,26.1,3.8,21.4,6c-1.1,0.5-2.1,1.2-2.9,2.1C15.9,10.5,15,13.6,16,17.2z M20,17c-1.3-2.8,0-6.1,2.7-7.3  c2.8-1.3,6.1,0,7.3,2.7c1.3,2.8,0,6.1-2.7,7.3S21.2,19.8,20,17z"/>
    <g fill="#f05033">
        <path d="M46,71.4c-1.3,2.8-2.5,5.6-3.8,8.4c-2.1,4.6-5.7,7.7-10.6,8.9c-6.9,1.7-12.8-0.3-17.3-5.8c-3.6-4.6-4.4-9.8-2.6-15.4   c0.4-1.3,0.6-1.3,1.7-0.4c1.6,1.4,3.2,2.7,4.7,4.1c0.2,0.1,0.3,0.4,0.6,0.3c0.3-0.1,0.1-0.5,0.1-0.7c-0.2-1.9-0.4-3.7-0.6-5.6   c-0.7-6.3-1.5-12.5-2.3-18.8c-0.1-0.4-0.1-0.9-0.4-1.3c-0.4,0.3-0.4,0.6-0.6,0.9c-2.2,4.9-4.4,9.7-6.6,14.6C7.5,62.4,6.6,64.1,6,66   c-1.9,6.2-1.3,12.1,1.9,17.7c3.3,5.9,8.4,9.4,15,10.8c9.9,2.2,20.4-3.1,24.6-12.4c0.6-1.2,1.1-2.5,1.7-3.7   C48.2,76.1,47.1,73.7,46,71.4z"/>
        <path d="M52.8,66c0.3,0.7,0.7,1.5,1,2.2C60.3,54.1,66.7,40,73,25.9c0.6-1.3,1.1-2.1,2.6-1.8c0.2,0,0.5,0,0.8-0.1   c3.9-0.8,6.4-3,7.5-6.8c1-3.6,0.1-6.7-2.5-9.2c-0.8-0.8-1.8-1.6-2.9-2.1c-4.7-2.1-10.2-0.1-12.3,4.6c-0.7,1.5-0.9,3.2-0.8,4.7   c0.1,2,1,4.1,2.5,5.8c0.5,0.5,0.6,1,0.3,1.6c-1.5,3.3-3,6.5-4.5,9.8c-2.6,5.8-5.2,11.5-7.8,17.3c-1.3,3-2.7,5.9-4.1,8.8   c-0.4,0.9-0.8,1.7-1.2,2.6C51.4,62.8,52.1,64.4,52.8,66z M69.9,12.4c1.3-2.8,4.5-4,7.3-2.7c2.8,1.3,4,4.5,2.7,7.3   c-1.3,2.8-4.5,4-7.3,2.7C69.9,18.5,68.6,15.2,69.9,12.4z"/>
    </g>
</svg>