<svg xmlns="http://www.w3.org/2000/svg" 
    xmlns:xlink="http://www.w3.org/1999/xlink" version="1.1" x="0px" y="0px" viewBox="0 0 60 60" enable-background="new 0 0 60 60" xml:space="preserve">
    <g>
        <g>
            <rect fill="#f05033" x="17" y="23" width="18" height="2"/>
            <rect fill="#f05033" x="14" y="29" width="21" height="2"/>
            <rect fill="#f05033" x="14" y="35" width="21" height="2"/>
            <rect fill="#f05033" x="14" y="41" width="17" height="2"/>
            <rect fill="#f05033" x="23" y="17" width="12" height="2"/>
            <path fill="#f05033" d="M55.7,50.3c0,0-1.2-1.2-3.1-2.6l-1.1,1.6c0.9,0.6,1.6,1.2,2.1,1.6c-1.7,1.5-6.3,5-11.5,5c-0.9,0-1.8-0.1-2.8-0.3l-0.4,2    C39.9,57.9,41,58,42,58c7.5,0,13.5-6,13.7-6.3l0.7-0.7L55.7,50.3z"/>
            <path fill="#f05033" d="M32.6,52.7C31.7,52,31,51.4,30.5,51c1.7-1.5,6.3-5,11.5-5c0.9,0,1.9,0.1,2.8,0.3l0.4-2C44.1,44.1,43.1,44,42,44    c-7.5,0-13.5,6-13.7,6.3L27.6,51l0.7,0.7c0,0.1,1.2,1.3,3.2,2.6L32.6,52.7z"/>
            <rect fill="#f05033" x="29" y="50" transform="matrix(0.8437 -0.5369 0.5369 0.8437 -20.8144 30.522)" width="26.1" height="2"/>
            <path fill="#f05033" d="M8,22.5l11-8V2h22v39h2V2c0-1.1-0.9-2-2-2H17.4L6,21.8V53c0,1.1,0.9,2,2,2h17v-2H8V22.5z M9.9,18.7L17,5.1v8.4L9.9,18.7z"/>
        </g>
    </g>
</svg>