<svg xmlns="http://www.w3.org/2000/svg" xmlns:xlink="http://www.w3.org/1999/xlink" version="1.1" x="0px" y="0px" viewBox="0 0 64 64" enable-background="new 0 0 64 64" xml:space="preserve"><g><path fill="#f05033" d="M28.327,26.14c-0.96,2.515-1.904,4.745-2.67,7.035c-2.446,7.317-4.981,14.61-7.173,22.004   c-1.268,4.276,0.522,7.165,4.284,7.692c1.369,0.192,2.85,0.185,4.191-0.121c8.269-1.883,11.943-8.577,15.717-15.137   c-0.81,0.59-1.46,1.343-2.147,2.059c-2.118,2.209-4.473,4.097-7.41,5.099c-0.479,0.163-1.193,0.088-1.602-0.178   c-0.217-0.141-0.099-0.952,0.023-1.421c0.161-0.621,0.475-1.203,0.722-1.802c3.216-7.789,6.473-15.562,9.607-23.384   c0.543-1.356,0.9-2.954,0.757-4.381c-0.262-2.605-3.004-4.446-6.364-4.375C27.541,19.416,21.255,23.741,16.78,31   c-0.165,0.268-0.166,0.636-0.317,1.267C20.187,29.521,23.265,26.195,28.327,26.14z"/><circle fill="#f05033" cx="39.323" cy="9.214" r="8.214"/></g></svg>