<svg xmlns="http://www.w3.org/2000/svg" xmlns:xlink="http://www.w3.org/1999/xlink" version="1.1" x="0px" y="0px" viewBox="0 0 66 66" enable-background="new 0 0 66 66" xml:space="preserve"><g><g><path fill="#f05033" d="M55.2,22.4c-4.4,0-8.1,3.4-8.5,7.8H36.5c0-0.2,0.1-0.5,0.1-0.7c0-1-0.3-2-0.7-2.9l9.4-9.4c0.6,0.3,1.3,0.6,2,0.6    c2.2,0,4-1.8,4-4c0-2.2-1.8-4-4-4c-2.2,0-4,1.8-4,4c0,0.9,0.3,1.8,0.9,2.4L35,25.3c-1.2-1.3-2.9-2.2-4.8-2.2c-0.7,0-1.3,0.1-2,0.3    l-3.9-7c3.5-2.6,4.6-7.5,2.2-11.3C24,1,18.8-0.2,14.8,2.3C10.8,4.7,9.5,9.9,12,14c2.3,3.8,7,5.1,11,3.2l3.9,6.9    c-1.4,0.9-2.5,2.3-2.8,4l-11.6-3.2c0,0,0,0,0-0.1c0-2.2-1.8-4-4-4c-2.2,0-4,1.8-4,4c0,2.2,1.8,4,4,4c1.7,0,3.1-1,3.7-2.5l11.7,3.3    c0,1.3,0.5,2.6,1.2,3.6l-7.4,4.6C15,34.1,10,33.2,6.3,35.6c-4,2.5-5.2,7.8-2.7,11.7c1.6,2.5,4.3,4,7.2,4c3.9,0,7.4-2.7,8.3-6.6    c0.4-1.9,0.2-3.9-0.7-5.6l7.7-4.7c0.3,0.3,0.7,0.5,1,0.7v2.8c-0.6-0.3-1.2-0.5-1.9-0.5c-1.7,0.1-3,1.5-3,3.3v15.7    c0,1.2,0.5,2.2,1.3,2.9c0,0.1,0,0.1,0,0.2v4.8c0,0.4,0.3,0.8,0.8,0.8H46c0.4,0,0.8-0.3,0.8-0.8v-4.8c0-0.1,0-0.1,0-0.2    c0.8-0.7,1.3-1.7,1.3-2.9c0-17.3,0.3-16.9-0.9-18.1c-0.6-0.6-1.4-0.9-2.2-0.9c-0.7,0-1.3,0.3-1.8,0.8c-0.5-2-3.1-3.2-4.8-1.6    c-0.3-1.3-1.6-2.4-3.1-2.4c-0.4,0-0.7,0.1-1,0.2c0.9-0.7,1.5-1.6,1.9-2.7h10.6c0.4,4.3,4,7.8,8.5,7.8c4.7,0,8.5-3.8,8.5-8.5    C63.7,26.2,59.9,22.4,55.2,22.4z M47.2,11.2c1.4,0,2.5,1.1,2.5,2.5s-1.1,2.5-2.5,2.5c-1.4,0-2.5-1.1-2.5-2.5S45.9,11.2,47.2,11.2z     M13.3,13.2c-2-3.3-1-7.6,2.3-9.6c3.2-2,7.6-1.1,9.6,2.3c2,3.3,1,7.6-2.3,9.6C19.7,17.5,15.3,16.5,13.3,13.2z M8.4,27.3    c-1.4,0-2.5-1.1-2.5-2.5c0-1.4,1.1-2.5,2.5-2.5c1.4,0,2.5,1.1,2.5,2.5C10.9,26.1,9.8,27.3,8.4,27.3z M17.7,44.3    c-0.8,3.3-3.7,5.5-6.8,5.5c-2.4,0-4.6-1.2-5.9-3.3c-2.1-3.3-1.1-7.6,2.2-9.7c3.2-2,7.6-1.1,9.7,2.2C17.8,40.6,18.1,42.5,17.7,44.3    z M45.2,60.2v3.3h-20v-3.3h1.1c0,0,0,0,0,0h14.9h3.1c0,0,0,0,0,0H45.2z M35.2,35.6c0.9,0,1.7,0.7,1.7,1.7v2.2c0,0.2,0,6.3,0,6.5    c0,0.4,0.3,0.8,0.8,0.8s0.8-0.3,0.8-0.8c0-6.6,0-6.3,0-6.3c0-1.3,1.3-3.5,2.8-2c0.3,0.3,0.5,0.7,0.5,1.2v2.4c0,0,0,0,0,0v6.4    c0,0.4,0.3,0.8,0.8,0.8c0.4,0,0.8-0.3,0.8-0.8v-6.4c0,0,0,0,0,0c0-1,0.9-2.5,1.7-2.5c0.9,0,1.7,0.7,1.7,1.7c0,6,0,9.9,0,15.9    c0,1.3-1,2.3-2.3,2.3H26.2c-1.3,0-2.4-1.1-2.4-2.4V40.6c0-0.9,0.7-1.7,1.6-1.8c0.5,0,0.9,0.1,1.3,0.5c0.3,0.3,0.5,0.7,0.5,1.1v6.1    c0,0.4,0.3,0.8,0.8,0.8c0.4,0,0.8-0.3,0.8-0.8v-6c0,0,0,0,0,0v-5.9c0,0,0,0,0,0v-5.2c0-0.1,0-0.3,0-0.4c0.2-0.9,1-1.5,1.8-1.4    c0.2,0,0.1,0,0.3,0.1c0,0,0.2,0,0.2,0.1c0.6,0.3,1,0.8,1,1.5v5.2c0,0,0,0,0,0v3.2c0,0,0,0,0,0v6.4c0,0.4,0.3,0.8,0.8,0.8    c0.4,0,0.8-0.3,0.8-0.8v-6c0,0,0,0,0,0C33.5,37,34.4,35.6,35.2,35.6z M33.5,32.9v-3.7c0-4.1-6.3-4.2-6.3,0.1v3.9    c-1.1-0.9-1.8-2.3-1.8-3.8c0-2.7,2.2-4.8,4.8-4.8s4.8,2.2,4.8,4.8C35,30.8,34.5,32,33.5,32.9z M55.2,37.9c-3.9,0-7-3.1-7-7    s3.1-7,7-7s7,3.1,7,7S59.1,37.9,55.2,37.9z"/></g></g></svg>