<svg xmlns:dc="http://purl.org/dc/elements/1.1/" xmlns:cc="http://creativecommons.org/ns#" xmlns:rdf="http://www.w3.org/1999/02/22-rdf-syntax-ns#" xmlns:svg="http://www.w3.org/2000/svg" xmlns="http://www.w3.org/2000/svg" xmlns:sodipodi="http://sodipodi.sourceforge.net/DTD/sodipodi-0.dtd" xmlns:inkscape="http://www.inkscape.org/namespaces/inkscape" version="1.1" x="0px" y="0px" viewBox="0 0 100 100"><g transform="translate(0,-952.36218)"><path fill="#f05033" style="text-indent:0;text-transform:none;direction:ltr;block-progression:tb;baseline-shift:baseline;color:#000000;enable-background:accumulate;" d="m 86.553962,1006.3893 c -6.53568,-6.53576 -16.89557,-6.97246 -23.95326,-1.3258 l -36.85793,-36.85796 c -0.7811,-0.7811 -2.0473,-0.7811 -2.8284,0 l -14.1420004,14.1419 c -0.7811,0.7812 -0.7811,2.0474 0,2.8285 0.7811,0.7811 2.0473004,0.7811 2.8285004,0 l 12.7277,-12.7278 9.8995,9.8995 -9.8994,9.8994 c -0.781,0.781 -0.781,2.0473 0,2.8284 0.7811,0.7811 2.0474,0.7811 2.8284,0 l 9.8995,-9.8994 22.71567,22.71586 c -5.64649,7.0577 -5.20979,17.4175 1.32583,23.9532 7.01268,7.0127 18.44321,7.0127 25.45586,0 7.01268,-7.0127 7.0127,-18.4432 3e-5,-25.4558 z m -2.82843,2.8284 c 5.48406,5.484 5.48401,14.315 -2e-5,19.799 -5.48404,5.484 -14.31495,5.4841 -19.799,0 -5.48405,-5.4841 -5.48396,-14.315 0,-19.799 5.48405,-5.4841 14.31497,-5.4841 19.79902,0 z" fill-opacity="1" stroke="none" marker="none" visibility="visible" display="inline" overflow="visible"/></g></svg>