<svg xmlns="http://www.w3.org/2000/svg" data-name="Layer 1" viewBox="0 0 100 100" x="0px" y="0px">
    <path fill="#f05033" d="M22.15,49,7.88,55.54a1,1,0,0,0-.27.19l-.06.07a1,1,0,0,0-.15.22l0,.09a1,1,0,0,0-.07.35V75.26a1,1,0,0,0,.58.91l14.27,6.58a1,1,0,0,0,.84,0l6.69-3.08L50.54,91.57a1,1,0,0,0,1,0L71.23,80.07,77,82.74a1,1,0,0,0,.84,0l14.27-6.58a1,1,0,0,0,.58-.91V56.44a1,1,0,0,0-.07-.35l0-.09a1,1,0,0,0-.15-.22l-.06-.07a1,1,0,0,0-.27-.19L77.85,49a1,1,0,0,0-.27-.06l0-10.77a1,1,0,0,0-.5-.86L66.17,31.06V15.87a1,1,0,0,0-.07-.35l0-.09a1,1,0,0,0-.15-.22l-.06-.07a1,1,0,0,0-.27-.19L51.31,8.39a1,1,0,0,0-.84,0L36.21,15a1,1,0,0,0-.27.19l-.06.07a1,1,0,0,0-.15.22l0,.09a1,1,0,0,0-.07.35V31.08l-11,6.43a1,1,0,0,0-.5.87l0,11.12L23,49A1,1,0,0,0,22.15,49Zm.42,2,11.88,5.47L22.56,61.92,10.69,56.44ZM29.75,77.4l0,0-6.17,2.84V63.66L35.83,58V74.62l-6.06,2.79ZM9.3,58l12.27,5.65V80.27L9.3,74.62Zm54.87,0,12.27,5.65V80.27L64.17,74.62ZM78.44,80.27V63.66L90.7,58V74.62ZM89.31,56.44,77.44,61.92,65.55,56.44,77.44,51Zm-51.69-39L49.9,23.09V39.7L37.63,34ZM51.9,23.09l12.27-5.65V34L51.9,39.7Zm-1-12.69,11.88,5.47L50.9,21.35,39,15.87ZM26.11,39l9.51-5.55v1.29a1,1,0,0,0,.58.91l14.27,6.58a1,1,0,0,0,.84,0l14.27-6.58a1,1,0,0,0,.58-.91V33.36l9.38,5.36,0,10.9L62.75,55.54a1,1,0,0,0-.27.19l-.06.06a1,1,0,0,0-.15.22l0,.09a1,1,0,0,0-.07.35V75.26a1,1,0,0,0,.58.91L69,79.05,51,89.55,31.91,78.63l5.35-2.46a1,1,0,0,0,.58-.91V56.44a1,1,0,0,0-.07-.35l0-.09a1,1,0,0,0-.15-.22l-.06-.06a1,1,0,0,0-.27-.19l-11.1-5.11Z"/>
</svg>