<svg xmlns="http://www.w3.org/2000/svg" 
    xmlns:xlink="http://www.w3.org/1999/xlink" version="1.1" x="0px" y="0px" viewBox="0 0 24 24" style="enable-background:new 0 0 24 24;" xml:space="preserve">
    <g>
        <polygon fill="#f05033" points="12.62,18.207 11.913,17.5 14.913,14.5 11.913,11.5 12.62,10.793 15.974,14.146 15.974,14.854  "/>
        <rect fill="#f05033" x="8" y="14" width="7" height="1"/>
        <path fill="#f05033" d="M7.498,7H4V6h3.498C7.775,6,8,5.775,8,5.498V2h1v3.498C9,6.326,8.326,7,7.498,7z"/>
        <path fill="#f05033" d="M20,24H4c-1.103,0-2-0.897-2-2V5.496l0.146-0.354l4.996-4.996L7.496,0H20c1.103,0,2,0.897,2,2v20   C22,23.103,21.103,24,20,24z M3,5.703V22c0,0.552,0.449,1,1,1h16c0.552,0,1-0.448,1-1V2c0-0.551-0.448-1-1-1H7.703L3,5.703z"/>
    </g>
</svg>