<svg xmlns="http://www.w3.org/2000/svg" xmlns:xlink="http://www.w3.org/1999/xlink" version="1.1" x="0px" y="0px" viewBox="0 0 283.46 283.46" enable-background="new 0 0 283.46 283.46" xml:space="preserve">
    <path fill="#f05033" d="M116.572,116.183c-1.906-4.95-3.811-9.899-5.714-14.849c-1.551-4.034-3.102-8.069-4.652-12.103  c4.214,0.959,8.429,1.918,12.643,2.877c2.51,0.57,5.024,1.146,7.536,1.722c0.073-0.375,0.148-0.75,0.225-1.126  c-8.303-8.116-16.607-16.23-24.909-24.345c-29.178,8.505-58.352,17.019-87.529,25.54c13.821,14.45,27.639,28.903,41.476,43.354  C75.954,130.229,96.264,123.205,116.572,116.183z"/>
    <path fill="#f05033" d="M182.664,68.654c-2.734,4.286-5.104,8.806-7.11,13.479c-2.958,6.892-5.119,14.119-6.518,21.487  c2.806,0.642,5.608,1.285,8.421,1.925c3.588,0.819,7.175,1.638,10.763,2.457c-2.302,2.871-4.605,5.743-6.907,8.614  c-0.953,1.188-1.906,2.376-2.859,3.564c16.456,5.691,32.915,11.382,49.38,17.072c13.82-14.45,27.636-28.903,41.456-43.354  c-13.058-3.818-26.122-7.628-39.186-11.432C214.289,77.862,198.475,73.257,182.664,68.654z"/>
    <polygon fill="#f05033" points="141.733,173.054 141.733,264.039 61.539,222.912 55.646,137.252 "/>
    <polygon fill="#f05033" points="221.929,222.912 141.733,264.039 141.733,173.054 227.833,137.252 "/>
    <path fill="#f05033" d="M161.186,108.917c6.424-48.931,41.985-83.859,84.236-82.73c-51.045-22.622-105.189,13.69-113.394,76.034  c-4.892-1.123-9.812-2.254-14.714-3.37c7.494,19.491,15.006,38.975,22.501,58.469c12.027-15.004,24.066-30.025,36.1-45.032  C170.998,111.166,166.093,110.04,161.186,108.917z"/>
</svg>