<svg xmlns="http://www.w3.org/2000/svg" data-name="Layer 1" viewBox="0 0 100 100" x="0px" y="0px">
    <g>
        <path fill="#f05033" d="M14.97656,68.33008a5.95844,5.95844,0,0,0,1.75782,4.24267L27.42676,83.2666a6.00784,6.00784,0,0,0,8.48535-.00049L50,69.17822,64.08789,83.2666a6.00784,6.00784,0,0,0,8.48535-.00049L83.26562,72.57324a5.999,5.999,0,0,0,0-8.48535L69.178,50.00024,83.26562,35.9126a5.999,5.999,0,0,0,0-8.48535L72.57324,16.7334a6.007,6.007,0,0,0-8.48535.00049L50,30.82178,35.91211,16.7334a6.007,6.007,0,0,0-8.48535.00049L16.73438,27.42676a5.999,5.999,0,0,0,0,8.48535L30.822,49.99976,16.73438,64.0874A5.95931,5.95931,0,0,0,14.97656,68.33008ZM80.4375,66.9165a1.99927,1.99927,0,0,1,0,2.82813L69.74512,80.4375a2.00311,2.00311,0,0,1-2.8291.00049L52.82812,66.3501,66.34985,52.82837Zm-60.875-33.833a1.99927,1.99927,0,0,1,0-2.82813L30.25488,19.5625A2.00311,2.00311,0,0,1,33.084,19.562L47.17188,33.6499,33.65015,47.17163Zm0,33.83252L66.916,19.5625a2.00341,2.00341,0,0,1,2.8291-.00049L80.4375,30.25586a1.99926,1.99926,0,0,1,0,2.82812L33.084,80.4375a2.00311,2.00311,0,0,1-2.8291.00049L19.5625,69.74463v-.00049a1.99926,1.99926,0,0,1,0-2.82812Z"/>
        <circle fill="#f05033" cx="53" cy="53.07104" r="2.5"/>
        <circle fill="#f05033" cx="59.07104" cy="47" r="2.5"/>
        <circle fill="#f05033" cx="46.92896" cy="47" r="2.5"/>
        <circle fill="#f05033" cx="53" cy="40.92889" r="2.5"/>
        <circle fill="#f05033" cx="47.07104" cy="59" r="2.5"/>
        <circle fill="#f05033" cx="41" cy="52.92889" r="2.5"/>
    </g>
</svg>