<svg xmlns="http://www.w3.org/2000/svg" xmlns:xlink="http://www.w3.org/1999/xlink" version="1.1" x="0px" y="0px" viewBox="0 0 50 50" enable-background="new 0 0 50 50" xml:space="preserve">
    <g>
        <path fill="#f05033" fill-rule="evenodd" clip-rule="evenodd" d="M6.534,22.758H9.85v3.317H6.534V22.758z M13.237,22.758h3.317v3.317h-3.317   V22.758z M19.938,22.758h3.316v3.317h-3.316V22.758z M36.538,29.359h2.541v1.896h-2.541V29.359z M41.94,22.222   c0,0.723-0.259,1.37-0.663,1.959c-0.477,0.695-1.298,1.118-1.765,1.808c-0.389,0.574-0.427,1.287-0.431,1.962h-2.542   c0-1.415,0.018-2.315,0.964-3.508c0.469-0.59,1.337-1.134,1.711-1.723c0.556-0.877-0.388-1.524-1.198-1.524   c-0.701,0-1.341,0.385-1.44,1.12l-0.057,0.419h-2.482c0.073-1.191,0.191-2.007,1.131-2.89c0.811-0.76,1.843-1.055,2.937-1.055   C40.129,18.79,41.94,20.074,41.94,22.222z M46.615,15.031H31.942v14.328c0,2.621-1.711,4.853-4.074,5.638   c0.45,0.222,0.955,0.347,1.489,0.347h5.848l9.248,6.62v-6.62h2.161c1.861,0,3.385-1.525,3.385-3.386v-13.54   C50,16.555,48.476,15.031,46.615,15.031z M26.003,8.037H4.265C1.92,8.037,0,9.956,0,12.302v17.057c0,2.345,1.92,4.266,4.265,4.266   h2.723v8.339l11.65-8.339h7.366c2.349,0,4.266-1.917,4.266-4.266V12.302C30.269,9.956,28.348,8.037,26.003,8.037z"/>
    </g>
</svg>