<svg xmlns="http://www.w3.org/2000/svg" xmlns:xlink="http://www.w3.org/1999/xlink" version="1.1" x="0px" y="0px" viewBox="0 0 100 100" enable-background="new 0 0 100 100" xml:space="preserve">
    <g>
        <polygon fill="#f05033" points="94.787,42.031 68.62,24.15 51.306,49.601 57.418,53.76 70.568,34.434 90.615,48.138  "/>
        <path fill="#f05033" d="M69.353,29.002c3.673,3.589,6.419,7.808,7.958,13.558c2.591,9.674,0.597,20.359-5.003,28.586   c-11.302,16.616-34.472,21.024-51.09,9.718C4.295,69.351-0.121,46.174,11.449,29.17c7.037-10.351,17.368-15.589,29.778-16.309   l1.221,7.817c-10.339,0.192-19.023,4.028-24.937,12.728c-9.175,13.481-5.055,31.867,8.261,40.932   c6.273,4.265,13.934,5.809,21.387,4.462c7.24-1.381,14.723-5.464,18.935-11.653c6.488-9.533,6.803-23.95-1.966-31.939"/>
    </g>
</svg>