<svg xmlns="http://www.w3.org/2000/svg" 
    xmlns:xlink="http://www.w3.org/1999/xlink" version="1.1" x="0px" y="0px" viewBox="0 0 65 65" enable-background="new 0 0 65 65" xml:space="preserve">
    <g>
        <path fill="#f05033" d="M10.1,30l2.6,0c-0.2,0.8-0.2,1.6,0,2.4c0.6,2.3,2.7,3.9,5,3.9c0.4,0,0.9-0.1,1.3-0.2c1.3-0.3,2.5-1.2,3.2-2.4   c0.6-1.1,0.8-2.3,0.6-3.5l8.2,0.2c0.2,0,0.3,0.1,0.5,0.1c0.2,0,0.3,0,0.5-0.1c2.5-0.6,2.6-5.8,1.4-10.5c-1.1-4.1-3.3-8.6-5.8-8.6   c-0.2,0-0.3,0-0.5,0.1c-0.3,0.1-0.5,0.2-0.8,0.4L8.1,22.2c-1.6,0.9-2.4,2.9-2,4.7C6.6,28.7,8.2,30,10.1,30z M21.2,30.2   c0.2,0.9,0.1,1.9-0.4,2.8c-0.5,0.8-1.3,1.4-2.2,1.7c-2,0.5-3.9-0.7-4.5-2.6c-0.2-0.7-0.1-1.3,0-2L21.2,30.2   C21.2,30.2,21.2,30.2,21.2,30.2z M31.7,20.3c1.2,4.8,0.7,8.3-0.2,8.7l-0.4,0c-1.1-0.4-2.9-3-4.1-7.4c-0.6-2.3-0.8-4.5-0.7-6.2   c0.1-1.2,0.4-2,0.7-2.3l0.3-0.2c0,0,0,0,0,0C28.4,12.8,30.5,15.4,31.7,20.3z M8.8,23.5L25,14.2c-0.1,0.3-0.1,0.6-0.1,1   c-0.2,1.9,0.1,4.3,0.7,6.7c0.7,2.6,1.8,5.3,3.2,7l-18.6-0.4c-1.2,0-2.3-0.9-2.6-2C7.3,25.3,7.8,24.1,8.8,23.5z"/>
        <rect fill="#f05033" x="35.3" y="18.1" transform="matrix(-0.9685 0.2489 -0.2489 -0.9685 77.9828 27.8195)" width="3.9" height="1.5"/>
        <rect fill="#f05033" x="35.6" y="23.6" transform="matrix(-0.8608 -0.5089 0.5089 -0.8608 57.4593 64.5052)" width="3.9" height="1.5"/>
        <rect fill="#f05033" x="34.1" y="11.9" transform="matrix(0.8608 0.5089 -0.5089 0.8608 11.88 -15.8016)" width="1.5" height="3.9"/>
        <path fill="#f05033" d="M53.8,39.8v-35l-5.1-5l-4.4,4.3l-4.4-4.3l-4.4,4.3l-4.4-4.3l-4.4,4.3l-4.4-4.3L18,4.1l-4.4-4.3L9.2,4.1L4.9-0.1l-5.1,5   v53.8c0,3.6,2.9,6.5,6.5,6.5h52.5c3.6,0,6.5-2.9,6.5-6.5V39.8H53.8z M6.2,63.6c-2.7,0-5-2.2-5-5V5.5L4.9,2l4.4,4.3L13.6,2L18,6.2   L22.4,2l4.4,4.3L31.1,2l4.4,4.3L39.9,2l4.4,4.3L48.7,2l3.6,3.5v53.2c0,2,0.9,3.8,2.3,5H6.2z M63.8,58.7c0,2.7-2.2,5-5,5   c-2.7,0-5-2.2-5-5V41.3h10V58.7z"/>
        <path fill="#f05033" d="M31.4,51.3h17.2V38.1H31.4V51.3z M32.9,39.6h14.2v10.2H32.9V39.6z"/>
        <rect fill="#f05033" x="4.6" y="42.4" width="17.9" height="1.5"/>
        <rect fill="#f05033" x="4.6" y="48.7" width="22.8" height="1.5"/>
        <rect fill="#f05033" x="4.6" y="55.1" width="44" height="1.5"/>
        <rect fill="#f05033" x="58" y="44.7" width="1.5" height="1.5"/>
        <rect fill="#f05033" x="58" y="53.7" width="1.5" height="1.5"/>
        <rect fill="#f05033" x="58" y="49.2" width="1.5" height="1.5"/>
        <rect fill="#f05033" x="58" y="58.2" width="1.5" height="1.5"/>
    </g>
</svg>