<svg xmlns="http://www.w3.org/2000/svg" 
    xmlns:xlink="http://www.w3.org/1999/xlink" version="1.1" x="0px" y="0px" viewBox="0 0 24 24" style="enable-background:new 0 0 24 24;" xml:space="preserve">
    <g>
        <rect fill="#f05033" x="7.257" y="13.5" transform="matrix(0.7071 -0.7071 0.7071 0.7071 -6.3848 12.5858)" width="9.485" height="1"/>
        <rect fill="#f05033" x="11.5" y="9.257" transform="matrix(0.7071 -0.7071 0.7071 0.7071 -6.3848 12.5858)" width="1" height="9.485"/>
        <path fill="#f05033" d="M7.498,7H4V6h3.498C7.775,6,8,5.775,8,5.498V2h1v3.498C9,6.326,8.326,7,7.498,7z"/>
        <path fill="#f05033" d="M20,24H4c-1.103,0-2-0.897-2-2V5.496l0.146-0.354l4.996-4.996L7.496,0H20c1.103,0,2,0.897,2,2v20   C22,23.103,21.103,24,20,24z M3,5.703V22c0,0.552,0.449,1,1,1h16c0.552,0,1-0.448,1-1V2c0-0.551-0.448-1-1-1H7.703L3,5.703z"/>
    </g>
</svg>