<svg xmlns:x="http://ns.adobe.com/Extensibility/1.0/" 
    xmlns:i="http://ns.adobe.com/AdobeIllustrator/10.0/" 
    xmlns:graph="http://ns.adobe.com/Graphs/1.0/" 
    xmlns="http://www.w3.org/2000/svg" 
    xmlns:xlink="http://www.w3.org/1999/xlink" version="1.1" x="0px" y="0px" viewBox="0 0 100 100" enable-background="new 0 0 100 100" xml:space="preserve">
    <path fill="#f05033" d="M7.5,63.1h8.1v30.8c0,1.4,1.1,2.5,2.5,2.5h64.1c1.4,0,2.5-1.1,2.5-2.5V78.7l5.5,5.5c0.5,0.5,1.1,0.7,1.8,0.7  s1.3-0.2,1.8-0.7c1-1,1-2.6,0-3.5L84,70.9c-1-1-2.6-1-3.5,0l-9.8,9.8c-1,1-1,2.6,0,3.5c1,1,2.6,1,3.5,0l5.5-5.5v12.7H20.6V63.1h8.1  c1.4,0,2.5-1.1,2.5-2.5V39.4c0-1.4-1.1-2.5-2.5-2.5H7.5C6.1,36.9,5,38,5,39.4v21.3C5,62,6.1,63.1,7.5,63.1z M10,41.9h16.3v16.3H10  V41.9z M39.4,36.9c-1.4,0-2.5,1.1-2.5,2.5v21.3c0,1.4,1.1,2.5,2.5,2.5h21.3c1.4,0,2.5-1.1,2.5-2.5V39.4c0-1.4-1.1-2.5-2.5-2.5H39.4z   M58.1,58.1H41.9V41.9h16.3V58.1z M16,29.1c0.5,0.5,1.1,0.7,1.8,0.7s1.3-0.2,1.8-0.7l9.8-9.8c1-1,1-2.6,0-3.5c-1-1-2.6-1-3.5,0  l-5.5,5.5V8.6h59.1v28.3h-8.1c-1.4,0-2.5,1.1-2.5,2.5v21.3c0,1.4,1.1,2.5,2.5,2.5h21.3c1.4,0,2.5-1.1,2.5-2.5V39.4  c0-1.4-1.1-2.5-2.5-2.5h-8.1V6.1c0-1.4-1.1-2.5-2.5-2.5H17.7c-1.4,0-2.5,1.1-2.5,2.5v15.2l-5.5-5.5c-1-1-2.6-1-3.5,0  c-1,1-1,2.6,0,3.5L16,29.1z M90,58.1H73.8V41.9H90V58.1z"/>
</svg>