<svg xmlns="http://www.w3.org/2000/svg" 
    xmlns:xlink="http://www.w3.org/1999/xlink" version="1.1" viewBox="0 0 24 24" x="0px" y="0px">
    <path fill="#f05033" d="M19.058 21.005h-3.058v-2h3.058c0.552-0 1-0.448 1-1 0-0.184-0.050-0.357-0.137-0.505l-2.865-4.959-2.522 1.456 1.47-5.453 5.458 1.453-2.674 1.544 2.868 4.965c0.252 0.43 0.401 0.947 0.401 1.499 0 1.657-1.343 3-2.999 3zM12.869 5.293c-0.176-0.301-0.498-0.5-0.866-0.5s-0.69 0.199-0.863 0.495l-3.082 5.334 2.4 1.387-5.458 1.454-1.471-5.453 2.794 1.613 3.078-5.329c0.528-0.905 1.494-1.503 2.6-1.503s2.072 0.598 2.592 1.489l1.197 2.073-1.732 1zM4.081 17.505c-0.084 0.143-0.134 0.316-0.134 0.5 0 0.552 0.448 1 1 1h5.059v-3l3.987 4-3.987 4v-3h-5.059c-0.001 0-0.001 0-0.002 0-1.657 0-3-1.343-3-3 0-0.552 0.149-1.070 0.41-1.514l0.971-1.681 1.732 1z"/>
</svg>