<svg xmlns="http://www.w3.org/2000/svg" xmlns:xlink="http://www.w3.org/1999/xlink" viewBox="0 0 48 48" version="1.1" x="0px" y="0px">
    <path fill="#f05033" d="M28,28 C32.418278,28 36,24.418278 36,20 C36,15.581722 32.418278,12 28,12 C23.581722,12 20,15.581722 20,20 C20,24.418278 23.581722,28 28,28 Z M37.3504,27.5219729 L46.7321221,36.903695 C47.5108511,37.6824239 47.514416,38.9414282 46.7279221,39.7279221 C45.9468735,40.5089706 44.6811918,40.5096189 43.903695,39.7321221 L34.3535005,30.1819277 C32.5109928,31.33408 30.3332633,32 28,32 C21.372583,32 16,26.627417 16,20 C16,13.372583 21.372583,8 28,8 C34.627417,8 40,13.372583 40,20 C40,22.8479673 39.0078792,25.4642124 37.3504,27.5219729 Z M0,15 C0,13.8954305 0.679554462,13 1.49554521,13 L10.5044548,13 C11.3304216,13 12,13.8877296 12,15 C12,16.1045695 11.3204455,17 10.5044548,17 L1.49554521,17 C0.669578397,17 0,16.1122704 0,15 Z M0,27 C0,25.8954306 0.679554462,25 1.49554521,25 L10.5044548,25 C11.3304216,25 12,25.8877296 12,27 C12,28.1045694 11.3204455,29 10.5044548,29 L1.49554521,29 C0.669578397,29 0,28.1122704 0,27 Z M0,39 C0,37.8954306 0.657922267,37 1.49811914,37 L30.0018808,37 C30.8292691,37 31.5,37.8877296 31.5,39 C31.5,40.1045694 30.8420778,41 30.0018808,41 L1.49811914,41 C0.670730784,41 0,40.1122704 0,39 Z"/>
</svg>