<svg xmlns="http://www.w3.org/2000/svg" 
    xmlns:xlink="http://www.w3.org/1999/xlink" version="1.1" x="0px" y="0px" viewBox="0 0 91 91" enable-background="new 0 0 91 91" xml:space="preserve">
    <g>
        <path fill="#f05033" d="M78.826,45.33c1.389,0,2.514-1.125,2.514-2.512c0-0.596-0.207-1.143-0.553-1.572L58.115,1.986   c-0.449-0.779-1.277-1.258-2.176-1.258c-0.896,0-1.727,0.48-2.176,1.258L41.309,23.562H13.49c-1.389,0-2.514,1.125-2.514,2.512   v40.153c0,1.389,1.125,2.514,2.514,2.514h14.832c1.404,12.348,11.881,21.816,24.475,21.816c13.586,0,24.641-11.053,24.641-24.637   c0-8.6-4.432-16.18-11.129-20.59h12.484C78.805,45.33,78.814,45.33,78.826,45.33z M16.002,63.715V28.587h22.406l-7.49,12.975   c-0.447,0.777-0.447,1.734,0.002,2.512c0.447,0.778,1.277,1.256,2.176,1.256h17.094v18.385H16.002z M72.412,65.92   c0,10.814-8.799,19.613-19.615,19.613c-9.83,0-18.035-7.25-19.406-16.793h19.311c1.389,0,2.512-1.125,2.512-2.514V46.471   C64.891,47.668,72.412,55.924,72.412,65.92z M37.447,40.304L55.939,8.267l18.502,32.037H37.447z"/>
    </g>
</svg>