<svg xmlns="http://www.w3.org/2000/svg" 
    xmlns:xlink="http://www.w3.org/1999/xlink" version="1.1" x="0px" y="0px" viewBox="0 0 100 100" enable-background="new 0 0 100 100" xml:space="preserve">
    <path fill="#f05033" d="M93.5,47.7c-0.3-0.1-8.2-1.3-9.1-1.4c-2-0.3-5.2-6-5.3-7.5c0.1-1.4,3.7-8.1,7-12.1c0.5-0.6,0.6-1.3,0.2-2  c-0.3-0.6-1-1-1.7-1c-6.2,0.4-12.9,1.2-19.6,6.1c-0.6-0.3-1.3-0.5-2-0.7c1.2-2.1,1.9-4.5,1.9-7.1c0-7.9-6.4-14.4-14.4-14.4  S36.1,14,36.1,22c0,2.7,0.8,5.3,2.1,7.5c-15.1,5.1-22.2,19.2-23,26.7c-1.9,0.3-3.5,0.1-4.6-0.6c-1.1-0.7-1.7-1.9-2-3.6  c-0.1-1-1.1-1.7-2.1-1.5c-1,0.1-1.7,1.1-1.5,2.1c0.5,3.5,2.2,5.3,3.6,6.1c1.6,1,3.3,1.3,4.9,1.3c0.6,0,1.2-0.1,1.7-0.1  c0.8,7.9,5.4,14,8.2,17.7v13.1c0,1,0.8,1.8,1.8,1.8h12.1c1,0,1.8-0.8,1.8-1.8v-4.2c3.1,0.8,6.9,1.2,10.9,1.2c4.6,0,9.3-0.6,13.2-1.8  v4.8c0,1,0.8,1.8,1.8,1.8h12.1c1,0,1.8-0.8,1.8-1.8V78.7c4.1-2.2,11.9-7.2,15.4-10.6c0.4-0.3,0.6-0.8,0.6-1.3V49.5  C95,48.6,94.3,47.9,93.5,47.7z M91.4,66c-3.6,3.2-11.3,8.1-14.9,10c-0.6,0.3-1,0.9-1,1.6v11.1H67v-5.6c0,0,0,0,0,0  c0-0.1,0-0.1,0-0.2c0-0.1,0-0.1,0-0.2c0,0,0-0.1,0-0.1c0-0.1,0-0.1-0.1-0.2c0,0,0,0,0,0c0,0,0-0.1-0.1-0.1c0-0.1-0.1-0.1-0.1-0.2  c0,0-0.1-0.1-0.1-0.1c0,0-0.1-0.1-0.1-0.1c0,0-0.1-0.1-0.1-0.1c0,0-0.1-0.1-0.1-0.1c-0.1,0-0.1-0.1-0.2-0.1c-0.1,0-0.1-0.1-0.2-0.1  c-0.1,0-0.1,0-0.2-0.1c-0.1,0-0.1,0-0.2,0c-0.1,0-0.2,0-0.2,0c0,0-0.1,0-0.1,0c0,0,0,0,0,0c-0.1,0-0.2,0-0.2,0c0,0-0.1,0-0.1,0  c-0.1,0-0.1,0-0.2,0c-0.1,0-0.1,0-0.2,0.1c0,0,0,0,0,0C57.4,84.7,44,84.6,38,82.2c0,0-0.1,0-0.1,0c-0.1,0-0.1,0-0.2-0.1  c-0.1,0-0.1,0-0.2,0c0,0-0.1,0-0.1,0c0,0,0,0,0,0c-0.1,0-0.2,0-0.2,0c0,0-0.1,0-0.1,0c-0.1,0-0.1,0-0.2,0.1c-0.1,0-0.1,0-0.2,0  c-0.1,0-0.1,0.1-0.1,0.1c-0.1,0-0.1,0.1-0.2,0.1c-0.1,0-0.1,0.1-0.2,0.1c0,0-0.1,0.1-0.1,0.1c0,0-0.1,0.1-0.1,0.1  c0,0-0.1,0.1-0.1,0.1c0,0,0,0.1-0.1,0.1c0,0.1-0.1,0.1-0.1,0.2c0,0,0,0,0,0c0,0,0,0.1,0,0.1c0,0.1,0,0.1-0.1,0.2c0,0.1,0,0.1,0,0.2  c0,0,0,0.1,0,0.1v0v4.8h-8.4V77c0,0,0-0.1,0-0.1c0-0.4-0.1-0.8-0.4-1.2c-2.8-3.5-7.9-10.1-7.9-18.1c0-3.7,2.4-10.3,7.5-16  c4.3-4.7,11.9-10.4,23.8-10.4c6.7,0,11.2,0.7,14.3,2.4c0.6,0.3,1.4,0.3,2-0.2c4.9-3.9,9.7-5.1,14.5-5.7c-2.6,3.8-5.4,8.9-5.4,11.1  c0,2.7,4.1,10.5,8.4,11.2c0.6,0.1,5.1,0.8,7.5,1.2V66z"/>
    <circle fill="#f05033" cx="70.5" cy="50" r="3.7"/>
</svg>