<?xml version="1.0" standalone="no"?>
<!DOCTYPE svg PUBLIC "-//W3C//DTD SVG 20010904//EN"
 "http://www.w3.org/TR/2001/REC-SVG-20010904/DTD/svg10.dtd">
<svg version="1.0" xmlns="http://www.w3.org/2000/svg"
 width="2380.000000pt" height="420.000000pt" viewBox="0 0 2380.000000 420.000000"
 preserveAspectRatio="xMidYMid meet">

<g transform="translate(0.000000,420.000000) scale(0.100000,-0.100000)"
fill="#222" stroke="none">
<path fill="#222" d="M2100 3850 l0 -350 350 0 350 0 0 350 0 350 -350 0 -350 0 0 -350z"/>
<path fill="#222" d="M7000 3850 l0 -350 350 0 350 0 0 -700 0 -700 -350 0 -350 0 0 350 0
350 -350 0 -350 0 0 350 0 350 -350 0 -350 0 0 -700 0 -700 -700 0 -700 0 0
350 0 350 -350 0 -350 0 0 -350 0 -350 350 0 350 0 0 -350 0 -350 -350 0 -350
0 0 -350 0 -350 -350 0 -350 0 0 700 0 700 -350 0 -350 0 0 -350 0 -350 -350
0 -350 0 0 350 0 350 -350 0 -350 0 0 350 0 350 -350 0 -350 0 0 -350 0 -350
350 0 350 0 0 -350 0 -350 -350 0 -350 0 0 -700 0 -700 1050 0 1050 0 0 350 0
350 350 0 350 0 0 -350 0 -350 4200 0 4200 0 0 350 0 350 350 0 350 0 0 -350
0 -350 2450 0 2450 0 0 350 0 350 350 0 350 0 0 -350 0 -350 2100 0 2100 0 0
350 0 350 350 0 350 0 0 -350 0 -350 700 0 700 0 0 700 0 700 -350 0 -350 0 0
350 0 350 -350 0 -350 0 0 350 0 350 -350 0 -350 0 0 -350 0 -350 -350 0 -350
0 0 350 0 350 -350 0 -350 0 0 350 0 350 700 0 700 0 0 350 0 350 -700 0 -700
0 0 -350 0 -350 -350 0 -350 0 0 350 0 350 -350 0 -350 0 0 -350 0 -350 350 0
350 0 0 -700 0 -700 -350 0 -350 0 0 350 0 350 -350 0 -350 0 0 -350 0 -350
-350 0 -350 0 0 350 0 350 -350 0 -350 0 0 350 0 350 -350 0 -350 0 0 -350 0
-350 -350 0 -350 0 0 -350 0 -350 350 0 350 0 0 350 0 350 350 0 350 0 0
-1050 0 -1050 -350 0 -350 0 0 350 0 350 -700 0 -700 0 0 350 0 350 -350 0
-350 0 0 -350 0 -350 -350 0 -350 0 0 350 0 350 -700 0 -700 0 0 350 0 350
-350 0 -350 0 0 350 0 350 -350 0 -350 0 0 -350 0 -350 350 0 350 0 0 -350 0
-350 -350 0 -350 0 0 -350 0 -350 -350 0 -350 0 0 350 0 350 -350 0 -350 0 0
350 0 350 -350 0 -350 0 0 350 0 350 -350 0 -350 0 0 350 0 350 -350 0 -350 0
0 -350z m-700 -2450 l0 -700 -350 0 -350 0 0 700 0 700 350 0 350 0 0 -700z
m2800 350 l0 -350 350 0 350 0 0 -350 0 -350 -350 0 -350 0 0 350 0 350 -350
0 -350 0 0 350 0 350 350 0 350 0 0 -350z m2800 0 l0 -350 -350 0 -350 0 0
350 0 350 350 0 350 0 0 -350z m7000 0 l0 -350 350 0 350 0 0 350 0 350 700 0
700 0 0 -350 0 -350 -700 0 -700 0 0 -350 0 -350 -350 0 -350 0 0 350 0 350
-350 0 -350 0 0 -350 0 -350 -350 0 -350 0 0 350 0 350 350 0 350 0 0 350 0
350 350 0 350 0 0 -350z m3500 0 l0 -350 -350 0 -350 0 0 350 0 350 350 0 350
0 0 -350z m-21000 -700 l0 -350 -350 0 -350 0 0 350 0 350 350 0 350 0 0 -350z
m3500 0 l0 -350 -350 0 -350 0 0 350 0 350 350 0 350 0 0 -350z m2800 0 l0
-350 -350 0 -350 0 0 350 0 350 350 0 350 0 0 -350z m5600 0 l0 -350 -350 0
-350 0 0 350 0 350 350 0 350 0 0 -350z"/>
<path fill="#222" d="M14000 3850 l0 -350 350 0 350 0 0 350 0 350 -350 0 -350 0 0 -350z"/>
<path fill="#222" d="M12600 3150 l0 -350 350 0 350 0 0 350 0 350 -350 0 -350 0 0 -350z"/>
</g>
</svg>
